G04 ================== begin FILE IDENTIFICATION RECORD ==================*
G04 Layout Name:  C:/USERS/USER/DESKTOP/WORK/OSCILLATOR/allegro/OSCILLATOR.brd*
G04 Film Name:    BOTTOM*
G04 File Format:  Gerber RS274X*
G04 File Origin:  Cadence Allegro 17.2-P019*
G04 Origin Date:  Thu Aug 01 11:47:45 2019*
G04 *
G04 Layer:  ETCH/BOTTOM*
G04 Layer:  PIN/BOTTOM*
G04 Layer:  VIA CLASS/BOTTOM*
G04 *
G04 Offset:    (0.000 0.000)*
G04 Mirror:    No*
G04 Mode:      Positive*
G04 Rotation:  0*
G04 FullContactRelief:  No*
G04 UndefLineWidth:     0.000*
G04 ================== end FILE IDENTIFICATION RECORD ====================*
%FSLAX25Y25*MOMM*%
%IR0*IPPOS*OFA0.00000B0.00000*MIA0B0*SFA1.00000B1.00000*%
%ADD12C,1.524*%
%ADD15C,1.651*%
%ADD13C,1.905*%
%ADD16R,1.524X1.524*%
%ADD14R,1.905X1.905*%
%ADD11C,.61*%
%ADD10C,.635*%
%ADD17C,1.*%
%ADD18C,.5*%
%ADD21C,2.036*%
%ADD20C,2.164*%
%ADD19C,2.418*%
G75*
%LPD*%
G75*
G36*
G01X876100Y2230000D02*
Y3463000D01*
X796500Y3542600D01*
X588300D01*
G03X500000Y3593800I-88300J-50542D01*
G01Y3644200D01*
G03Y3847800I0J101800D01*
G01Y3898200D01*
G03Y4101800I0J101800D01*
G01Y6245800D01*
X754200D01*
Y6500000D01*
X9245800D01*
Y6245800D01*
X9500000D01*
Y3855800D01*
G03Y3652200I0J-101800D01*
G01Y3601800D01*
G03X9411700Y3550600I0J-101742D01*
G01X9088000D01*
X9067600Y3571000D01*
Y3908000D01*
X8988000Y3987600D01*
X8591000D01*
X8570600Y4008000D01*
Y4024400D01*
G03X8615600Y4069400I-50600J95600D01*
G01X8797500D01*
X8877100Y4149000D01*
Y5051000D01*
X8797500Y5130600D01*
X8339500D01*
X8298600Y5171500D01*
Y5353700D01*
G03X8197400I-50600J88300D01*
G01Y5129500D01*
X8297500Y5029400D01*
X8755500D01*
X8775900Y5009000D01*
Y4191000D01*
X8755500Y4170600D01*
X8615600D01*
G03X8469400Y4024400I-95600J-50600D01*
G01Y3966000D01*
X8549000Y3886400D01*
X8946000D01*
X8966400Y3866000D01*
Y3529000D01*
X9046000Y3449400D01*
X9411700D01*
G03X9500000Y3398200I88300J50542D01*
G01Y754200D01*
X9245800D01*
Y500000D01*
X754200D01*
Y754200D01*
X500000D01*
Y3390200D01*
G03X588300Y3441400I0J101742D01*
G01X754500D01*
X774900Y3421000D01*
Y2188000D01*
X854500Y2108400D01*
X1477700D01*
G03Y2209600I109800J50600D01*
G01X896500D01*
X876100Y2230000D01*
G37*
%LPC*%
G75*
G36*
G01X7638200Y4603800D02*
Y4756200D01*
G02X7663800Y4781800I25600J0D01*
G01X7816200D01*
G02X7841800Y4756200I0J-25600D01*
G01Y4603800D01*
G02X7816200Y4578200I-25600J0D01*
G01X7663800D01*
G02X7638200Y4603800I0J25600D01*
G37*
G36*
G01X5898200D02*
Y4756200D01*
G02X5923800Y4781800I25600J0D01*
G01X6076200D01*
G02X6101800Y4756200I0J-25600D01*
G01Y4603800D01*
G02X6076200Y4578200I-25600J0D01*
G01X5923800D01*
G02X5898200Y4603800I0J25600D01*
G37*
G36*
G01X4318200D02*
Y4756200D01*
G02X4343800Y4781800I25600J0D01*
G01X4496200D01*
G02X4521800Y4756200I0J-25600D01*
G01Y4603800D01*
G02X4496200Y4578200I-25600J0D01*
G01X4343800D01*
G02X4318200Y4603800I0J25600D01*
G37*
G36*
G01X2778200Y4623800D02*
Y4776200D01*
G02X2803800Y4801800I25600J0D01*
G01X2956200D01*
G02X2981800Y4776200I0J-25600D01*
G01Y4623800D01*
G02X2956200Y4598200I-25600J0D01*
G01X2803800D01*
G02X2778200Y4623800I0J25600D01*
G37*
G36*
G01X3244600Y2317800D02*
Y2508200D01*
G02X3270200Y2533800I25600J0D01*
G01X3460800D01*
G02X3486400Y2508200I0J-25600D01*
G01Y2317800D01*
G02X3460800Y2292200I-25600J0D01*
G01X3270200D01*
G02X3244600Y2317800I0J25600D01*
G37*
G36*
G01X1466600D02*
Y2508200D01*
G02X1492200Y2533800I25600J0D01*
G01X1682800D01*
G02X1708400Y2508200I0J-25600D01*
G01Y2317800D01*
G02X1682800Y2292200I-25600J0D01*
G01X1492200D01*
G02X1466600Y2317800I0J25600D01*
G37*
G36*
G01X2470600Y5034400D02*
X2490600Y5014400D01*
Y4271600D01*
G02X2389400I-50600J-95600D01*
G01Y4972400D01*
X2369400Y4992400D01*
Y5051700D01*
G02X2470600I50600J88300D01*
G01Y5034400D01*
G37*
G36*
G01X7550600Y5101000D02*
Y4231600D01*
G02X7449400I-50600J-95600D01*
G01Y5059000D01*
X7418400Y5090000D01*
X6522400D01*
X6457400Y5155000D01*
Y5353700D01*
G02X6558600I50600J88300D01*
G01Y5197000D01*
X6564400Y5191200D01*
X7460400D01*
X7550600Y5101000D01*
G37*
G36*
G01X4530600Y4437500D02*
Y4231600D01*
G02X4429400I-50600J-95600D01*
G01Y4479500D01*
X4509000Y4559100D01*
X4614500D01*
X4623400Y4568000D01*
Y4591700D01*
G02X4724600I50600J88300D01*
G01Y4526000D01*
X4656500Y4457900D01*
X4551000D01*
X4530600Y4437500D01*
G37*
G36*
G01X6470600Y4232000D02*
Y4215600D01*
G02X6369400I-50600J-95600D01*
G01Y4274000D01*
X6457400Y4362000D01*
Y4591700D01*
G02X6558600I50600J88300D01*
G01Y4320000D01*
X6470600Y4232000D01*
G37*
G36*
G01X5110600Y4310500D02*
Y3949600D01*
G02X5009400I-50600J-95600D01*
G01Y4352500D01*
X5089000Y4432100D01*
X5453500D01*
X5473900Y4452500D01*
Y5038200D01*
X5429600Y5082500D01*
X4942400D01*
X4877400Y5147500D01*
Y5353700D01*
G02X4978600I50600J88300D01*
G01Y5189500D01*
X4984400Y5183700D01*
X5471600D01*
X5575100Y5080200D01*
Y4410500D01*
X5495500Y4330900D01*
X5131000D01*
X5110600Y4310500D01*
G37*
G36*
G01X4833600Y3650600D02*
X4964400D01*
G02Y3549400I95600J-50600D01*
G01X4791600D01*
X4711900Y3629100D01*
Y4479500D01*
X4791500Y4559100D01*
X4862100D01*
X4877400Y4574400D01*
Y4591700D01*
G02X4978600I50600J88300D01*
G01Y4532400D01*
X4904100Y4457900D01*
X4833500D01*
X4813100Y4437500D01*
Y3671100D01*
X4833600Y3650600D01*
G37*
G36*
G01X2686500Y3109400D02*
X2535600D01*
G02Y3210600I-95600J50600D01*
G01X2644500D01*
X2679900Y3246000D01*
Y4352500D01*
X2759500Y4432100D01*
X3317000D01*
X3337400Y4452500D01*
Y4611700D01*
G02X3438600I50600J88300D01*
G01Y4410500D01*
X3359000Y4330900D01*
X2801500D01*
X2781100Y4310500D01*
Y3204000D01*
X2686500Y3109400D01*
G37*
G36*
G01X8050600Y3236000D02*
Y3219600D01*
G02X7949400I-50600J-95600D01*
G01Y3278000D01*
X7950400Y3279000D01*
Y3654000D01*
X8030000Y3733600D01*
X8177000D01*
X8197400Y3754000D01*
Y4591700D01*
G02X8298600I50600J88300D01*
G01Y3712000D01*
X8219000Y3632400D01*
X8072000D01*
X8051600Y3612000D01*
Y3237000D01*
X8050600Y3236000D01*
G37*
G36*
G01X7302500Y3170600D02*
X7404400D01*
G02Y3069400I95600J-50600D01*
G01X7260500D01*
X7180900Y3149000D01*
Y4049000D01*
X7160500Y4069400D01*
X7055600D01*
G02Y4170600I-95600J50600D01*
G01X7202500D01*
X7282100Y4091000D01*
Y3191000D01*
X7302500Y3170600D01*
G37*
G36*
G01X4503300Y1829400D02*
X4268400D01*
G02Y1980600I-77400J75600D01*
G01X4440700D01*
X4496400Y2036300D01*
Y2789700D01*
X4440700Y2845400D01*
X4005700D01*
X3861400Y2989700D01*
Y4885200D01*
X3805700Y4940900D01*
X3202700D01*
X3058400Y5085200D01*
Y5393800D01*
G02X3209600I75600J68200D01*
G01Y5147800D01*
X3265300Y5092100D01*
X3868300D01*
X4012600Y4947800D01*
Y3052300D01*
X4068300Y2996600D01*
X4503300D01*
X4647600Y2852300D01*
Y1973700D01*
X4503300Y1829400D01*
G37*
G36*
G01X2725300D02*
X2490400D01*
G02Y1980600I-77400J75600D01*
G01X2662700D01*
X2718400Y2036300D01*
Y2915800D01*
X2862700Y3060100D01*
X2907300D01*
G03X2915300Y3076600I15J10182D01*
G02X3084700I84700J67400D01*
G03X3092700Y3060100I7985J-6318D01*
G01X3510700D01*
X3566400Y3115800D01*
Y4631800D01*
G02X3717600I75600J68200D01*
G01Y3053200D01*
X3573300Y2908900D01*
X2925300D01*
X2869600Y2853200D01*
Y1973700D01*
X2725300Y1829400D01*
G37*
G54D21*
X1912000Y5140000D03*
X2166000Y5394000D03*
X3134000Y4700000D03*
X3388000Y5462000D03*
X2880000D03*
X3642000D03*
X4674000Y5442000D03*
X4420000D03*
X5182000Y4680000D03*
Y5442000D03*
X6254000Y4680000D03*
Y5442000D03*
X6000000D03*
X6762000Y4680000D03*
Y5442000D03*
X7994000Y4680000D03*
Y5442000D03*
X7740000D03*
X8502000Y4680000D03*
Y5442000D03*
G54D20*
X1920000Y3144000D03*
X1300000Y3280000D03*
X1920000Y4160000D03*
X1300000Y3534000D03*
X2413000Y1651000D03*
Y2603500D03*
Y2349500D03*
X3000000Y4160000D03*
X4191000Y1651000D03*
Y2667000D03*
Y2413000D03*
X4480000Y3120000D03*
X5800000D03*
X6420000Y3104000D03*
X5800000Y4136000D03*
X6960000Y3104000D03*
X8000000Y4140000D03*
X8520000Y3104000D03*
G54D19*
X1587500Y1905000D03*
X3365500D03*
Y2159000D03*
%LPD*%
G75*
G54D10*
X500000Y500000D03*
Y6500000D03*
X9500000Y500000D03*
Y6500000D03*
G54D11*
X645200Y1415000D03*
Y2431000D03*
Y1923000D03*
Y2939000D03*
Y4463000D03*
Y5479000D03*
Y4971000D03*
X1661200Y1415000D03*
X1153200D03*
X1661200Y2431000D03*
X1153200D03*
Y1923000D03*
Y2939000D03*
X1661200Y3955000D03*
X1153200D03*
X1661200Y3447000D03*
X1153200D03*
X1661200Y4463000D03*
X1153200D03*
X1661200Y5479000D03*
X1153200D03*
X1661200Y4971000D03*
X1153200D03*
X2169200Y1415000D03*
Y3955000D03*
Y3447000D03*
Y4463000D03*
Y4971000D03*
X3185200Y1415000D03*
X2677200D03*
X3185200Y2431000D03*
X2677200D03*
X3185200Y1923000D03*
X2677200Y2939000D03*
X3185200Y3955000D03*
Y3447000D03*
Y4463000D03*
X2677200D03*
Y5479000D03*
Y4971000D03*
X3693200Y1415000D03*
Y2939000D03*
X4709200Y1415000D03*
X4201200D03*
X4709200Y2431000D03*
Y1923000D03*
Y2939000D03*
X4201200Y3955000D03*
X4709200Y3447000D03*
X4201200D03*
Y4463000D03*
Y5479000D03*
X5217200Y1415000D03*
Y2431000D03*
Y1923000D03*
Y2939000D03*
Y3955000D03*
Y3447000D03*
Y4463000D03*
X6233200Y1415000D03*
X5725200D03*
X6233200Y2431000D03*
X5725200D03*
X6233200Y1923000D03*
X5725200D03*
X6233200Y2939000D03*
X5725200D03*
X6233200Y3955000D03*
X5725200D03*
X6233200Y3447000D03*
X5725200D03*
Y4463000D03*
Y5479000D03*
X6741200Y1415000D03*
Y2431000D03*
Y1923000D03*
Y3955000D03*
Y3447000D03*
Y4463000D03*
Y4971000D03*
X7757200Y1415000D03*
X7249200D03*
X7757200Y2431000D03*
X7249200D03*
X7757200Y1923000D03*
X7249200D03*
X7757200Y3955000D03*
Y3447000D03*
Y4463000D03*
X7249200D03*
Y5479000D03*
X8265200Y1415000D03*
Y2431000D03*
Y1923000D03*
Y2939000D03*
Y3447000D03*
X9281200Y1415000D03*
X8773200D03*
X9281200Y2431000D03*
X8773200D03*
X9281200Y1923000D03*
X8773200D03*
X9281200Y2939000D03*
X8773200D03*
X9281200Y3955000D03*
X8773200Y3447000D03*
X9281200Y4463000D03*
Y5479000D03*
X8773200D03*
X9281200Y4971000D03*
G54D12*
X500000Y3492000D03*
Y4000000D03*
Y3746000D03*
X1912000Y5140000D03*
X2166000Y5394000D03*
X2420000Y5140000D03*
X3388000Y4700000D03*
X3134000D03*
X3388000Y5462000D03*
X3134000D03*
X2880000D03*
X3642000Y4700000D03*
Y5462000D03*
X4928000Y4680000D03*
X4674000D03*
X4928000Y5442000D03*
X4674000D03*
X4420000D03*
X5182000Y4680000D03*
Y5442000D03*
X6508000Y4680000D03*
X6254000D03*
X6508000Y5442000D03*
X6254000D03*
X6000000D03*
X6762000Y4680000D03*
Y5442000D03*
X7994000Y4680000D03*
Y5442000D03*
X7740000D03*
X8502000Y4680000D03*
X8248000D03*
X8502000Y5442000D03*
X8248000D03*
X9500000Y3500000D03*
Y3754000D03*
G54D13*
X1587500Y1905000D03*
Y2159000D03*
X3365500Y1905000D03*
Y2159000D03*
G54D14*
X1587500Y2413000D03*
X3365500D03*
G54D15*
X1920000Y3144000D03*
X1300000Y3280000D03*
X1920000Y4160000D03*
X1300000Y3534000D03*
X2413000Y1905000D03*
Y1651000D03*
Y2603500D03*
Y2349500D03*
X2440000Y3160000D03*
Y4176000D03*
X3000000Y3144000D03*
Y4160000D03*
X4191000Y1651000D03*
Y1905000D03*
Y2667000D03*
Y2413000D03*
X4480000Y3120000D03*
Y4136000D03*
X5060000Y3854000D03*
Y3600000D03*
X5800000Y3120000D03*
X6420000Y3104000D03*
X5800000Y4136000D03*
X6420000Y4120000D03*
X6960000Y3104000D03*
Y4120000D03*
X8000000Y3124000D03*
X7500000Y3120000D03*
X8000000Y4140000D03*
X7500000Y4136000D03*
X8520000Y3104000D03*
Y4120000D03*
G54D16*
X2880000Y4700000D03*
X4420000Y4680000D03*
X6000000D03*
X7740000D03*
G54D17*
G01X2413000Y1905000D02*
X2694000D01*
X2794000Y2005000D01*
Y2884500D01*
X2894000Y2984500D01*
X3542000D01*
X3642000Y3084500D01*
Y4700000D01*
G01X4191000Y1905000D02*
X4472000D01*
X4572000Y2005000D01*
Y2821000D01*
X4472000Y2921000D01*
X4037000D01*
X3937000Y3021000D01*
Y4916500D01*
X3837000Y5016500D01*
X3234000D01*
X3134000Y5116500D01*
Y5462000D01*
G54D18*
G01X1587500Y2159000D02*
X875500D01*
X825500Y2209000D01*
Y3442000D01*
X775500Y3492000D01*
X500000D01*
G01Y3746000D02*
X606900D01*
G01X500000D02*
Y3852900D01*
G01Y3639100D02*
Y3746000D01*
G01X1587500Y2413000D02*
X1713500D01*
G01X1461500D02*
X1587500D01*
G01D02*
Y2539000D01*
G01X1806700Y3144000D02*
X1920000D01*
G01X1300000Y3534000D02*
X1413300D01*
G01X1186700D02*
X1300000D01*
G01D02*
Y3647300D01*
G01Y3420700D02*
Y3534000D01*
G01X2413000Y1651000D02*
X2526300D01*
G01X2299700D02*
X2413000D01*
G01D02*
Y1764300D01*
G01Y1537700D02*
Y1651000D01*
G01Y2349500D02*
X2526300D01*
G01X2299700D02*
X2413000D01*
G01D02*
Y2462800D01*
G01Y2236200D02*
Y2349500D01*
G01X1920000Y3144000D02*
X2033300D01*
G01X1920000D02*
Y3257300D01*
G01Y3030700D02*
Y3144000D01*
G01X2440000Y3160000D02*
X2665500D01*
X2730500Y3225000D01*
Y4331500D01*
X2780500Y4381500D01*
X3338000D01*
X3388000Y4431500D01*
Y4700000D01*
G01X2420000Y5140000D02*
Y5013400D01*
X2440000Y4993400D01*
Y4176000D01*
G01X3365500Y2159000D02*
X3491500D01*
G01X3239500D02*
X3365500D01*
G01X4077700Y1651000D02*
X4191000D01*
G01X4077700Y2667000D02*
X4191000D01*
G01Y1651000D02*
X4304300D01*
G01X4191000D02*
Y1764300D01*
G01Y1537700D02*
Y1651000D01*
G01Y2553700D02*
Y2667000D01*
G01D02*
X4304300D01*
G01X4191000D02*
Y2780300D01*
G01X4480000Y3120000D02*
X4593300D01*
G01X4366700D02*
X4480000D01*
G01D02*
Y3233300D01*
G01Y4136000D02*
Y4458500D01*
X4530000Y4508500D01*
X4635500D01*
X4674000Y4547000D01*
Y4680000D01*
G01X5060000Y3600000D02*
X4812600D01*
X4762500Y3650100D01*
Y4458500D01*
X4812500Y4508500D01*
X4883100D01*
X4928000Y4553400D01*
Y4680000D01*
G01X5060000Y3854000D02*
Y4331500D01*
X5110000Y4381500D01*
X5474500D01*
X5524500Y4431500D01*
Y5059200D01*
X5450600Y5133100D01*
X4963400D01*
X4928000Y5168500D01*
Y5442000D01*
G01X6508000Y4680000D02*
Y4341000D01*
X6420000Y4253000D01*
Y4120000D01*
G01X6960000Y3104000D02*
X7073300D01*
G01X6846700D02*
X6960000D01*
G01D02*
Y3217300D01*
G01Y2990700D02*
Y3104000D01*
G01X7500000Y3120000D02*
X7281500D01*
X7231500Y3170000D01*
Y4070000D01*
X7181500Y4120000D01*
X6960000D01*
G01X7500000Y4136000D02*
Y5080000D01*
X7439400Y5140600D01*
X6543400D01*
X6508000Y5176000D01*
Y5442000D01*
G01X7887100Y4680000D02*
X7994000D01*
G01X8000000Y3124000D02*
Y3257000D01*
X8001000Y3258000D01*
Y3633000D01*
X8051000Y3683000D01*
X8198000D01*
X8248000Y3733000D01*
Y4680000D01*
G01X9500000Y3500000D02*
X9067000D01*
X9017000Y3550000D01*
Y3887000D01*
X8967000Y3937000D01*
X8570000D01*
X8520000Y3987000D01*
Y4120000D01*
G01D02*
X8776500D01*
X8826500Y4170000D01*
Y5030000D01*
X8776500Y5080000D01*
X8318500D01*
X8248000Y5150500D01*
Y5442000D01*
G01X7994000Y4680000D02*
X8100900D01*
G01X7994000D02*
Y4786900D01*
G01Y4573100D02*
Y4680000D01*
G01X9393100Y3754000D02*
X9500000D01*
G01D02*
Y3860900D01*
G01Y3647100D02*
Y3754000D01*
M02*
