G04 ================== begin FILE IDENTIFICATION RECORD ==================*
G04 Layout Name:  C:/USERS/USER/DESKTOP/WORK/OSCILLATOR/allegro/OSCILLATOR.brd*
G04 Film Name:    drillDraw*
G04 File Format:  Gerber RS274X*
G04 File Origin:  Cadence Allegro 17.2-P019*
G04 Origin Date:  Thu Aug 01 11:47:45 2019*
G04 *
G04 Layer:  MANUFACTURING/NCLEGEND-1-2*
G04 Layer:  BOARD GEOMETRY/DESIGN_OUTLINE*
G04 *
G04 Offset:    (0.000 0.000)*
G04 Mirror:    No*
G04 Mode:      Positive*
G04 Rotation:  0*
G04 FullContactRelief:  No*
G04 UndefLineWidth:     0.100*
G04 ================== end FILE IDENTIFICATION RECORD ====================*
%FSLAX25Y25*MOMM*%
%IR0*IPPOS*OFA0.00000B0.00000*MIA0B0*SFA1.00000B1.00000*%
%AMMACRO11*
1,1,.1,.686,0.0*
20,1,.1,.686,0.0,.675578,-.119123,0.0*
1,1,.1,.675578,-.119123*
20,1,.1,.675578,-.119123,.644629,-.234626,0.0*
1,1,.1,.644629,-.234626*
20,1,.1,.644629,-.234626,.594093,-.343,0.0*
1,1,.1,.594093,-.343*
20,1,.1,.594093,-.343,.525506,-.440952,0.0*
1,1,.1,.525506,-.440952*
20,1,.1,.525506,-.440952,.440952,-.525506,0.0*
1,1,.1,.440952,-.525506*
20,1,.1,.440952,-.525506,.343,-.594093,0.0*
1,1,.1,.343,-.594093*
20,1,.1,.343,-.594093,.234626,-.644629,0.0*
1,1,.1,.234626,-.644629*
20,1,.1,.234626,-.644629,.119123,-.675578,0.0*
1,1,.1,.119123,-.675578*
20,1,.1,.119123,-.675578,0.0,-.686,0.0*
1,1,.1,0.0,-.686*
20,1,.1,0.0,-.686,-.119123,-.675578,0.0*
1,1,.1,-.119123,-.675578*
20,1,.1,-.119123,-.675578,-.234626,-.644629,0.0*
1,1,.1,-.234626,-.644629*
20,1,.1,-.234626,-.644629,-.343,-.594093,0.0*
1,1,.1,-.343,-.594093*
20,1,.1,-.343,-.594093,-.440952,-.525506,0.0*
1,1,.1,-.440952,-.525506*
20,1,.1,-.440952,-.525506,-.525506,-.440952,0.0*
1,1,.1,-.525506,-.440952*
20,1,.1,-.525506,-.440952,-.594093,-.343,0.0*
1,1,.1,-.594093,-.343*
20,1,.1,-.594093,-.343,-.644629,-.234626,0.0*
1,1,.1,-.644629,-.234626*
20,1,.1,-.644629,-.234626,-.675578,-.119123,0.0*
1,1,.1,-.675578,-.119123*
20,1,.1,-.675578,-.119123,-.686,0.0,0.0*
1,1,.1,-.686,0.0*
20,1,.1,-.686,0.0,-.675578,.119123,0.0*
1,1,.1,-.675578,.119123*
20,1,.1,-.675578,.119123,-.644629,.234626,0.0*
1,1,.1,-.644629,.234626*
20,1,.1,-.644629,.234626,-.594093,.343,0.0*
1,1,.1,-.594093,.343*
20,1,.1,-.594093,.343,-.525506,.440952,0.0*
1,1,.1,-.525506,.440952*
20,1,.1,-.525506,.440952,-.440952,.525506,0.0*
1,1,.1,-.440952,.525506*
20,1,.1,-.440952,.525506,-.343,.594093,0.0*
1,1,.1,-.343,.594093*
20,1,.1,-.343,.594093,-.234626,.644629,0.0*
1,1,.1,-.234626,.644629*
20,1,.1,-.234626,.644629,-.119123,.675578,0.0*
1,1,.1,-.119123,.675578*
20,1,.1,-.119123,.675578,0.0,.686,0.0*
1,1,.1,0.0,.686*
20,1,.1,0.0,.686,.119123,.675578,0.0*
1,1,.1,.119123,.675578*
20,1,.1,.119123,.675578,.234626,.644629,0.0*
1,1,.1,.234626,.644629*
20,1,.1,.234626,.644629,.343,.594093,0.0*
1,1,.1,.343,.594093*
20,1,.1,.343,.594093,.440952,.525506,0.0*
1,1,.1,.440952,.525506*
20,1,.1,.440952,.525506,.525506,.440952,0.0*
1,1,.1,.525506,.440952*
20,1,.1,.525506,.440952,.594093,.343,0.0*
1,1,.1,.594093,.343*
20,1,.1,.594093,.343,.644629,.234626,0.0*
1,1,.1,.644629,.234626*
20,1,.1,.644629,.234626,.675578,.119123,0.0*
1,1,.1,.675578,.119123*
20,1,.1,.675578,.119123,.686,0.0,0.0*
1,1,.1,.686,0.0*
1,1,.1,-.286,-.343*
20,1,.1,-.286,-.343,0.0,.343,0.0*
1,1,.1,0.0,.343*
20,1,.1,0.0,.343,.286,-.343,0.0*
1,1,.1,.286,-.343*
1,1,.1,.183,-.103*
20,1,.1,.183,-.103,-.183,-.103,0.0*
1,1,.1,-.183,-.103*
%
%ADD11MACRO11*%
%AMMACRO12*
1,1,.1,-.508,.3175*
20,1,.1,-.508,.3175,-.500282,.405713,0.0*
1,1,.1,-.500282,.405713*
20,1,.1,-.500282,.405713,-.477364,.491246,0.0*
1,1,.1,-.477364,.491246*
20,1,.1,-.477364,.491246,-.439941,.5715,0.0*
1,1,.1,-.439941,.5715*
20,1,.1,-.439941,.5715,-.389151,.644036,0.0*
1,1,.1,-.389151,.644036*
20,1,.1,-.389151,.644036,-.326536,.706651,0.0*
1,1,.1,-.326536,.706651*
20,1,.1,-.326536,.706651,-.254,.757441,0.0*
1,1,.1,-.254,.757441*
20,1,.1,-.254,.757441,-.173746,.794864,0.0*
1,1,.1,-.173746,.794864*
20,1,.1,-.173746,.794864,-.088213,.817782,0.0*
1,1,.1,-.088213,.817782*
20,1,.1,-.088213,.817782,0.0,.8255,0.0*
1,1,.1,0.0,.8255*
20,1,.1,0.0,.8255,.088213,.817782,0.0*
1,1,.1,.088213,.817782*
20,1,.1,.088213,.817782,.173746,.794864,0.0*
1,1,.1,.173746,.794864*
20,1,.1,.173746,.794864,.254,.757441,0.0*
1,1,.1,.254,.757441*
20,1,.1,.254,.757441,.326536,.706651,0.0*
1,1,.1,.326536,.706651*
20,1,.1,.326536,.706651,.389151,.644036,0.0*
1,1,.1,.389151,.644036*
20,1,.1,.389151,.644036,.439941,.5715,0.0*
1,1,.1,.439941,.5715*
20,1,.1,.439941,.5715,.477364,.491246,0.0*
1,1,.1,.477364,.491246*
20,1,.1,.477364,.491246,.500282,.405713,0.0*
1,1,.1,.500282,.405713*
20,1,.1,.500282,.405713,.508,.3175,0.0*
1,1,.1,.508,.3175*
20,1,.1,.508,.3175,.508,-.3175,0.0*
1,1,.1,.508,-.3175*
20,1,.1,.508,-.3175,.500282,-.405713,0.0*
1,1,.1,.500282,-.405713*
20,1,.1,.500282,-.405713,.477364,-.491246,0.0*
1,1,.1,.477364,-.491246*
20,1,.1,.477364,-.491246,.439941,-.5715,0.0*
1,1,.1,.439941,-.5715*
20,1,.1,.439941,-.5715,.389151,-.644036,0.0*
1,1,.1,.389151,-.644036*
20,1,.1,.389151,-.644036,.326536,-.706651,0.0*
1,1,.1,.326536,-.706651*
20,1,.1,.326536,-.706651,.254,-.757441,0.0*
1,1,.1,.254,-.757441*
20,1,.1,.254,-.757441,.173746,-.794864,0.0*
1,1,.1,.173746,-.794864*
20,1,.1,.173746,-.794864,.088213,-.817782,0.0*
1,1,.1,.088213,-.817782*
20,1,.1,.088213,-.817782,0.0,-.8255,0.0*
1,1,.1,0.0,-.8255*
20,1,.1,0.0,-.8255,-.088213,-.817782,0.0*
1,1,.1,-.088213,-.817782*
20,1,.1,-.088213,-.817782,-.173746,-.794864,0.0*
1,1,.1,-.173746,-.794864*
20,1,.1,-.173746,-.794864,-.254,-.757441,0.0*
1,1,.1,-.254,-.757441*
20,1,.1,-.254,-.757441,-.326536,-.706651,0.0*
1,1,.1,-.326536,-.706651*
20,1,.1,-.326536,-.706651,-.389151,-.644036,0.0*
1,1,.1,-.389151,-.644036*
20,1,.1,-.389151,-.644036,-.439941,-.5715,0.0*
1,1,.1,-.439941,-.5715*
20,1,.1,-.439941,-.5715,-.477364,-.491246,0.0*
1,1,.1,-.477364,-.491246*
20,1,.1,-.477364,-.491246,-.500282,-.405713,0.0*
1,1,.1,-.500282,-.405713*
20,1,.1,-.500282,-.405713,-.508,-.3175,0.0*
1,1,.1,-.508,-.3175*
20,1,.1,-.508,-.3175,-.508,.3175,0.0*
1,1,.1,-.508,.3175*
%
%ADD12MACRO12*%
%AMMACRO13*
1,1,.1,.635,0.0*
20,1,.1,.635,0.0,.3175,.549926,0.0*
1,1,.1,.3175,.549926*
20,1,.1,.3175,.549926,-.3175,.549926,0.0*
1,1,.1,-.3175,.549926*
20,1,.1,-.3175,.549926,-.635,0.0,0.0*
1,1,.1,-.635,0.0*
20,1,.1,-.635,0.0,-.3175,-.549926,0.0*
1,1,.1,-.3175,-.549926*
20,1,.1,-.3175,-.549926,.3175,-.549926,0.0*
1,1,.1,.3175,-.549926*
20,1,.1,.3175,-.549926,.635,0.0,0.0*
1,1,.1,.635,0.0*
%
%ADD13MACRO13*%
%AMMACRO10*
1,1,.1,-.666,-.952*
20,1,.1,-.666,-.952,.667,.953,0.0*
1,1,.1,.667,.953*
1,1,.1,-.666,.953*
20,1,.1,-.666,.953,.667,-.952,0.0*
1,1,.1,.667,-.952*
%
%ADD10MACRO10*%
%ADD14C,.1*%
G75*
%LPD*%
G75*
G54D10*
X500000Y500000D03*
Y6500000D03*
X242900Y8255900D03*
X9500000Y500000D03*
Y6500000D03*
G54D11*
X242900Y8541600D03*
X1587500Y1905000D03*
Y2413000D03*
Y2159000D03*
X3365500Y1905000D03*
Y2413000D03*
Y2159000D03*
G54D12*
X242900Y8827400D03*
X1920000Y3144000D03*
X1300000Y3280000D03*
X1920000Y4160000D03*
X1300000Y3534000D03*
X2413000Y1905000D03*
Y1651000D03*
Y2603500D03*
Y2349500D03*
X2440000Y3160000D03*
Y4176000D03*
X3000000Y3144000D03*
Y4160000D03*
X4191000Y1651000D03*
Y1905000D03*
Y2667000D03*
Y2413000D03*
X4480000Y3120000D03*
Y4136000D03*
X5060000Y3854000D03*
Y3600000D03*
X5800000Y3120000D03*
X6420000Y3104000D03*
X5800000Y4136000D03*
X6420000Y4120000D03*
X6960000Y3104000D03*
Y4120000D03*
X8000000Y3124000D03*
X7500000Y3120000D03*
X8000000Y4140000D03*
X7500000Y4136000D03*
X8520000Y3104000D03*
Y4120000D03*
G54D13*
X242900Y9113100D03*
X500000Y3492000D03*
Y4000000D03*
Y3746000D03*
X1912000Y5140000D03*
X2166000Y5394000D03*
X2420000Y5140000D03*
X3388000Y4700000D03*
X3134000D03*
X2880000D03*
X3388000Y5462000D03*
X3134000D03*
X2880000D03*
X3642000Y4700000D03*
Y5462000D03*
X4928000Y4680000D03*
X4674000D03*
X4420000D03*
X4928000Y5442000D03*
X4674000D03*
X4420000D03*
X5182000Y4680000D03*
Y5442000D03*
X6508000Y4680000D03*
X6254000D03*
X6000000D03*
X6508000Y5442000D03*
X6254000D03*
X6000000D03*
X6762000Y4680000D03*
Y5442000D03*
X7994000Y4680000D03*
X7740000D03*
X7994000Y5442000D03*
X7740000D03*
X8502000Y4680000D03*
X8248000D03*
X8502000Y5442000D03*
X8248000D03*
X9500000Y3500000D03*
Y3754000D03*
G54D14*
G01X0Y0D02*
Y7000000D01*
X10000000D01*
Y0D01*
X0D01*
G01X40000Y8398800D02*
X2277000D01*
G01X40000Y8684500D02*
X2277000D01*
G01X40000Y8113000D02*
Y10160000D01*
X2277000D01*
Y8113000D01*
X40000D01*
G01Y8970200D02*
X2277000D01*
G01X40000Y9256000D02*
X2277000D01*
G01X90500Y9287800D02*
Y9351300D01*
X116300D01*
G01X106800Y9320600D02*
X90500D01*
G01X151100Y9351300D02*
X167300D01*
G01X159200D02*
Y9287800D01*
G01X151100D02*
X167300D01*
G01X219100Y9319500D02*
X232600D01*
Y9300500D01*
X228500Y9294100D01*
X223800Y9289900D01*
X217000Y9287800D01*
X210300Y9289900D01*
X205500Y9294100D01*
X201500Y9300500D01*
X198800Y9307900D01*
X197400Y9316400D01*
Y9323800D01*
X198800Y9330100D01*
X201500Y9337500D01*
X205500Y9343900D01*
X209600Y9348100D01*
X215000Y9351300D01*
X219700D01*
X225100Y9349200D01*
X229200Y9344900D01*
G01X255900Y9351300D02*
Y9305800D01*
X258600Y9296300D01*
X264000Y9289900D01*
X270800Y9287800D01*
X277600Y9289900D01*
X283000Y9296300D01*
X285700Y9305800D01*
Y9351300D01*
G01X313100Y9287800D02*
Y9351300D01*
X330000D01*
X335400Y9348100D01*
X338800Y9343900D01*
X340100Y9335400D01*
X338800Y9327000D01*
X334700Y9321700D01*
X330000Y9318500D01*
X313100D01*
G01X330000D02*
X340100Y9287800D01*
G01X395900D02*
X368900D01*
Y9351300D01*
X395900D01*
G01X385100Y9320600D02*
X368900D01*
G01X40000Y9383000D02*
X2277000D01*
G01X40000Y9510000D02*
X2277000D01*
G01X773300Y8236800D02*
X777400Y8229400D01*
X782800Y8225200D01*
X788900Y8224100D01*
X794300Y8225200D01*
X799700Y8230400D01*
X803100Y8236800D01*
X803800Y8243100D01*
X802400Y8250600D01*
X797700Y8255800D01*
X792900Y8258000D01*
X786800D01*
G01X792900D02*
X797000Y8261100D01*
X800400Y8266400D01*
X801700Y8272800D01*
X800400Y8279100D01*
X797000Y8284400D01*
X790900Y8287600D01*
X784800Y8286500D01*
X778700Y8282300D01*
G01X844000Y8222000D02*
X842600Y8223000D01*
Y8225200D01*
X844000Y8226200D01*
X845400Y8225200D01*
Y8223000D01*
X844000Y8222000D01*
G01X899800Y8224100D02*
Y8287600D01*
X891700Y8274900D01*
G01Y8224100D02*
X907900D01*
G01X954200D02*
X955600Y8237900D01*
X957600Y8249500D01*
X960300Y8260100D01*
X963700Y8271700D01*
X969100Y8287600D01*
X942100D01*
G01X996500Y8233600D02*
X1000600Y8228300D01*
X1005300Y8225200D01*
X1011400Y8224100D01*
X1017500Y8226200D01*
X1022200Y8230400D01*
X1025600Y8237900D01*
X1026300Y8246300D01*
X1024900Y8254800D01*
X1021500Y8260100D01*
X1016800Y8264300D01*
X1012100Y8265400D01*
X1007300Y8264300D01*
X1001300Y8260100D01*
X1003300Y8287600D01*
X1021500D01*
G01X788200Y8509900D02*
Y8573400D01*
X780100Y8560700D01*
G01Y8509900D02*
X796300D01*
G01X844000Y8507800D02*
X842600Y8508800D01*
Y8511000D01*
X844000Y8512000D01*
X845400Y8511000D01*
Y8508800D01*
X844000Y8507800D01*
G01X884900Y8522600D02*
X889000Y8515200D01*
X894400Y8511000D01*
X900500Y8509900D01*
X905900Y8511000D01*
X911300Y8516200D01*
X914700Y8522600D01*
X915400Y8528900D01*
X914000Y8536400D01*
X909300Y8541600D01*
X904500Y8543800D01*
X898400D01*
G01X904500D02*
X908600Y8546900D01*
X912000Y8552200D01*
X913300Y8558600D01*
X912000Y8564900D01*
X908600Y8570200D01*
X902500Y8573400D01*
X896400Y8572300D01*
X890300Y8568100D01*
G01X954200Y8509900D02*
X955600Y8523700D01*
X957600Y8535300D01*
X960300Y8545900D01*
X963700Y8557500D01*
X969100Y8573400D01*
X942100D01*
G01X998500Y8562800D02*
X1002600Y8569200D01*
X1007300Y8572300D01*
X1012800Y8573400D01*
X1019500Y8571300D01*
X1024300Y8566000D01*
X1025600Y8559600D01*
X1024900Y8553300D01*
X1022200Y8548000D01*
X1008700Y8537400D01*
X1002600Y8530000D01*
X998500Y8519400D01*
X997200Y8509900D01*
X1025600D01*
G01X445800Y9383000D02*
Y8113000D01*
G01X788200Y8795600D02*
Y8859100D01*
X780100Y8846400D01*
G01Y8795600D02*
X796300D01*
G01X844000Y8793500D02*
X842600Y8794500D01*
Y8796700D01*
X844000Y8797700D01*
X845400Y8796700D01*
Y8794500D01*
X844000Y8793500D01*
G01X899800Y8859100D02*
X894400Y8857000D01*
X890300Y8851700D01*
X887600Y8845300D01*
X885600Y8836900D01*
X884900Y8827300D01*
X885600Y8817800D01*
X887600Y8809400D01*
X890300Y8803000D01*
X894400Y8797700D01*
X899800Y8795600D01*
X905200Y8797700D01*
X909300Y8803000D01*
X912000Y8809400D01*
X914000Y8817800D01*
X914700Y8827300D01*
X914000Y8836900D01*
X912000Y8845300D01*
X909300Y8851700D01*
X905200Y8857000D01*
X899800Y8859100D01*
G01X942700Y8822100D02*
X947500Y8829500D01*
X951500Y8833700D01*
X957000Y8835800D01*
X961700Y8833700D01*
X965100Y8829500D01*
X967800Y8823100D01*
X968500Y8815700D01*
X967800Y8809400D01*
X965100Y8803000D01*
X961000Y8797700D01*
X956300Y8795600D01*
X950900Y8797700D01*
X946100Y8804100D01*
X943400Y8813600D01*
X942700Y8824200D01*
X944100Y8837900D01*
X946100Y8845300D01*
X949500Y8852700D01*
X954200Y8858000D01*
X959000Y8859100D01*
X963700Y8857000D01*
X967100Y8851700D01*
G01X1010000Y8795600D02*
X1011400Y8809400D01*
X1013400Y8821000D01*
X1016100Y8831600D01*
X1019500Y8843200D01*
X1024900Y8859100D01*
X997900D01*
G01X788200Y9144900D02*
X782800Y9142800D01*
X778700Y9137500D01*
X776000Y9131100D01*
X774000Y9122700D01*
X773300Y9113100D01*
X774000Y9103600D01*
X776000Y9095200D01*
X778700Y9088800D01*
X782800Y9083500D01*
X788200Y9081400D01*
X793600Y9083500D01*
X797700Y9088800D01*
X800400Y9095200D01*
X802400Y9103600D01*
X803100Y9113100D01*
X802400Y9122700D01*
X800400Y9131100D01*
X797700Y9137500D01*
X793600Y9142800D01*
X788200Y9144900D01*
G01X844000Y9079300D02*
X842600Y9080300D01*
Y9082500D01*
X844000Y9083500D01*
X845400Y9082500D01*
Y9080300D01*
X844000Y9079300D01*
G01X888300Y9088800D02*
X893000Y9083500D01*
X898400Y9081400D01*
X903900Y9083500D01*
X908600Y9089900D01*
X912000Y9099400D01*
X913300Y9108900D01*
Y9120600D01*
X912000Y9130100D01*
X908600Y9138500D01*
X904500Y9142800D01*
X899800Y9144900D01*
X894400Y9142800D01*
X890300Y9138500D01*
X887600Y9132200D01*
X886300Y9123700D01*
X887600Y9116300D01*
X891000Y9108900D01*
X895100Y9104700D01*
X899800Y9103600D01*
X905200Y9105700D01*
X909300Y9111000D01*
X913300Y9120600D01*
G01X955600Y9081400D02*
Y9144900D01*
X947500Y9132200D01*
G01Y9081400D02*
X963700D01*
G01X1019500D02*
Y9144900D01*
X994500Y9099400D01*
X1028300D01*
G01X552100Y9287800D02*
Y9351300D01*
X577900D01*
G01X568400Y9320600D02*
X552100D01*
G01X612700Y9351300D02*
X628900D01*
G01X620800D02*
Y9287800D01*
G01X612700D02*
X628900D01*
G01X661000D02*
Y9351300D01*
X692200Y9287800D01*
Y9351300D01*
G01X724300D02*
X740500D01*
G01X732400D02*
Y9287800D01*
G01X724300D02*
X740500D01*
G01X774000Y9296300D02*
X779400Y9291000D01*
X785500Y9287800D01*
X790900D01*
X796300Y9291000D01*
X800400Y9296300D01*
X802400Y9303700D01*
X801100Y9311100D01*
X797700Y9317400D01*
X791600Y9321700D01*
X783500Y9323800D01*
X778700Y9328000D01*
X776700Y9335400D01*
X778100Y9342800D01*
X781400Y9348100D01*
X786200Y9351300D01*
X790900D01*
X795600Y9349200D01*
X799700Y9343900D01*
G01X829800Y9287800D02*
Y9351300D01*
G01X858200D02*
Y9287800D01*
G01Y9319500D02*
X829800D01*
G01X913300Y9287800D02*
X886300D01*
Y9351300D01*
X913300D01*
G01X902500Y9320600D02*
X886300D01*
G01X940700Y9287800D02*
Y9351300D01*
X954200D01*
X959700Y9348100D01*
X963700Y9343900D01*
X967100Y9337500D01*
X969800Y9330100D01*
X970500Y9319500D01*
X969800Y9309000D01*
X967100Y9301600D01*
X963700Y9295200D01*
X959700Y9291000D01*
X954200Y9287800D01*
X940700D01*
G01X991100Y9266600D02*
X1031700D01*
G01X1053000Y9296300D02*
X1058400Y9291000D01*
X1064500Y9287800D01*
X1069900D01*
X1075300Y9291000D01*
X1079400Y9296300D01*
X1081400Y9303700D01*
X1080100Y9311100D01*
X1076700Y9317400D01*
X1070600Y9321700D01*
X1062500Y9323800D01*
X1057700Y9328000D01*
X1055700Y9335400D01*
X1057100Y9342800D01*
X1060400Y9348100D01*
X1065200Y9351300D01*
X1069900D01*
X1074600Y9349200D01*
X1078700Y9343900D01*
G01X1114900Y9351300D02*
X1131100D01*
G01X1123000D02*
Y9287800D01*
G01X1114900D02*
X1131100D01*
G01X1165900Y9351300D02*
X1191700D01*
X1165900Y9287800D01*
X1191700D01*
G01X1248100D02*
X1221100D01*
Y9351300D01*
X1248100D01*
G01X1237300Y9320600D02*
X1221100D01*
G01X388300Y9414800D02*
X405200Y9478300D01*
X422100Y9414800D01*
G01X416000Y9437000D02*
X394400D01*
G01X447500Y9478300D02*
Y9414800D01*
X474500D01*
G01X503300Y9478300D02*
Y9414800D01*
X530300D01*
G01X613500Y9478300D02*
Y9432800D01*
X616200Y9423300D01*
X621600Y9416900D01*
X628400Y9414800D01*
X635200Y9416900D01*
X640600Y9423300D01*
X643300Y9432800D01*
Y9478300D01*
G01X668600Y9414800D02*
Y9478300D01*
X699800Y9414800D01*
Y9478300D01*
G01X731900D02*
X748100D01*
G01X740000D02*
Y9414800D01*
G01X731900D02*
X748100D01*
G01X795800Y9478300D02*
Y9414800D01*
G01X780200Y9478300D02*
X811400D01*
G01X837400Y9423300D02*
X842800Y9418000D01*
X848900Y9414800D01*
X854300D01*
X859700Y9418000D01*
X863800Y9423300D01*
X865800Y9430700D01*
X864500Y9438100D01*
X861100Y9444400D01*
X855000Y9448700D01*
X846900Y9450800D01*
X842100Y9455000D01*
X840100Y9462400D01*
X841500Y9469800D01*
X844800Y9475100D01*
X849600Y9478300D01*
X854300D01*
X859000Y9476200D01*
X863100Y9470900D01*
G01X946300Y9414800D02*
X963200Y9478300D01*
X980100Y9414800D01*
G01X974000Y9437000D02*
X952400D01*
G01X1005500Y9414800D02*
Y9478300D01*
X1022400D01*
X1027800Y9475100D01*
X1031200Y9470900D01*
X1032500Y9462400D01*
X1031200Y9454000D01*
X1027100Y9448700D01*
X1022400Y9445500D01*
X1005500D01*
G01X1022400D02*
X1032500Y9414800D01*
G01X1088300D02*
X1061300D01*
Y9478300D01*
X1088300D01*
G01X1077500Y9447600D02*
X1061300D01*
G01X1178300Y9478300D02*
X1194500D01*
G01X1186400D02*
Y9414800D01*
G01X1178300D02*
X1194500D01*
G01X1226600D02*
Y9478300D01*
X1257800Y9414800D01*
Y9478300D01*
G01X1336200Y9414800D02*
Y9478300D01*
X1353800Y9425400D01*
X1371400Y9478300D01*
Y9414800D01*
G01X1401500Y9478300D02*
X1417700D01*
G01X1409600D02*
Y9414800D01*
G01X1401500D02*
X1417700D01*
G01X1451900Y9478300D02*
Y9414800D01*
X1478900D01*
G01X1507700Y9478300D02*
Y9414800D01*
X1534700D01*
G01X1568900Y9478300D02*
X1585100D01*
G01X1577000D02*
Y9414800D01*
G01X1568900D02*
X1585100D01*
G01X1615200D02*
Y9478300D01*
X1632800Y9425400D01*
X1650400Y9478300D01*
Y9414800D01*
G01X1702100D02*
X1675100D01*
Y9478300D01*
X1702100D01*
G01X1691300Y9447600D02*
X1675100D01*
G01X1744400Y9478300D02*
Y9414800D01*
G01X1728800Y9478300D02*
X1760000D01*
G01X1813700Y9414800D02*
X1786700D01*
Y9478300D01*
X1813700D01*
G01X1802900Y9447600D02*
X1786700D01*
G01X1842500Y9414800D02*
Y9478300D01*
X1859400D01*
X1864800Y9475100D01*
X1868200Y9470900D01*
X1869500Y9462400D01*
X1868200Y9454000D01*
X1864100Y9448700D01*
X1859400Y9445500D01*
X1842500D01*
G01X1859400D02*
X1869500Y9414800D01*
G01X1897600Y9423300D02*
X1903000Y9418000D01*
X1909100Y9414800D01*
X1914500D01*
X1919900Y9418000D01*
X1924000Y9423300D01*
X1926000Y9430700D01*
X1924700Y9438100D01*
X1921300Y9444400D01*
X1915200Y9448700D01*
X1907100Y9450800D01*
X1902300Y9455000D01*
X1900300Y9462400D01*
X1901700Y9469800D01*
X1905000Y9475100D01*
X1909800Y9478300D01*
X1914500D01*
X1919200Y9476200D01*
X1923300Y9470900D01*
G01X446100Y10064800D02*
Y10128300D01*
X459600D01*
X465100Y10125100D01*
X469100Y10120900D01*
X472500Y10114500D01*
X475200Y10107100D01*
X475900Y10096500D01*
X475200Y10086000D01*
X472500Y10078600D01*
X469100Y10072200D01*
X465100Y10068000D01*
X459600Y10064800D01*
X446100D01*
G01X503300D02*
Y10128300D01*
X520200D01*
X525600Y10125100D01*
X529000Y10120900D01*
X530300Y10112400D01*
X529000Y10104000D01*
X524900Y10098700D01*
X520200Y10095500D01*
X503300D01*
G01X520200D02*
X530300Y10064800D01*
G01X564500Y10128300D02*
X580700D01*
G01X572600D02*
Y10064800D01*
G01X564500D02*
X580700D01*
G01X614900Y10128300D02*
Y10064800D01*
X641900D01*
G01X670700Y10128300D02*
Y10064800D01*
X697700D01*
G01X810700Y10123000D02*
X806600Y10126200D01*
X801900Y10128300D01*
X796500D01*
X790400Y10125100D01*
X785700Y10119800D01*
X782300Y10113500D01*
X779600Y10102900D01*
X778900Y10093400D01*
X780200Y10083800D01*
X782300Y10077500D01*
X786300Y10071100D01*
X791100Y10066900D01*
X795800Y10064800D01*
X800500D01*
X805300Y10066900D01*
X809300Y10070100D01*
X812700Y10074300D01*
G01X837400Y10064800D02*
Y10128300D01*
G01X865800D02*
Y10064800D01*
G01Y10096500D02*
X837400D01*
G01X890500Y10064800D02*
X907400Y10128300D01*
X924300Y10064800D01*
G01X918200Y10087000D02*
X896600D01*
G01X949700Y10064800D02*
Y10128300D01*
X966600D01*
X972000Y10125100D01*
X975400Y10120900D01*
X976700Y10112400D01*
X975400Y10104000D01*
X971300Y10098700D01*
X966600Y10095500D01*
X949700D01*
G01X966600D02*
X976700Y10064800D01*
G01X1019000Y10128300D02*
Y10064800D01*
G01X1003400Y10128300D02*
X1034600D01*
G01X1074800Y10062700D02*
X1073400Y10063700D01*
Y10065900D01*
X1074800Y10066900D01*
X1076200Y10065900D01*
Y10063700D01*
X1074800Y10062700D01*
G01Y10091300D02*
X1073400Y10092300D01*
Y10094400D01*
X1074800Y10095500D01*
X1076200Y10094400D01*
Y10092300D01*
X1074800Y10091300D01*
G01X1186400Y10128300D02*
Y10064800D01*
G01X1170800Y10128300D02*
X1202000D01*
G01X1242200Y10064800D02*
X1236800Y10065900D01*
X1232100Y10070100D01*
X1228000Y10076400D01*
X1225300Y10083800D01*
X1223900Y10092300D01*
Y10100800D01*
X1225300Y10109300D01*
X1228000Y10116700D01*
X1232100Y10123000D01*
X1236800Y10127200D01*
X1242200Y10128300D01*
X1247600Y10127200D01*
X1252300Y10123000D01*
X1256400Y10116700D01*
X1259100Y10109300D01*
X1260500Y10100800D01*
Y10092300D01*
X1259100Y10083800D01*
X1256400Y10076400D01*
X1252300Y10070100D01*
X1247600Y10065900D01*
X1242200Y10064800D01*
G01X1284500D02*
Y10128300D01*
X1300700D01*
X1306100Y10125100D01*
X1310200Y10117700D01*
X1311500Y10109300D01*
X1310200Y10100800D01*
X1306800Y10094400D01*
X1300700Y10091300D01*
X1284500D01*
G01X1409600Y10128300D02*
Y10064800D01*
G01X1400100Y10107100D02*
X1419100D01*
G01X1465400Y10064800D02*
X1461300Y10065900D01*
X1457300Y10070100D01*
X1454600Y10077500D01*
X1453200Y10086000D01*
X1454600Y10094400D01*
X1457300Y10101800D01*
X1461300Y10106100D01*
X1465400Y10107100D01*
X1469500Y10106100D01*
X1473500Y10101800D01*
X1476200Y10094400D01*
X1476900Y10086000D01*
X1476200Y10077500D01*
X1473500Y10070100D01*
X1469500Y10065900D01*
X1465400Y10064800D01*
G01X1582400Y10098700D02*
X1585100Y10101800D01*
X1587100Y10107100D01*
X1588500Y10114500D01*
X1587100Y10120900D01*
X1584400Y10125100D01*
X1579700Y10128300D01*
X1561400D01*
Y10064800D01*
X1583800D01*
X1588500Y10069000D01*
X1591200Y10075400D01*
X1592600Y10082800D01*
X1591200Y10090200D01*
X1587100Y10096500D01*
X1582400Y10098700D01*
X1561400D01*
G01X1632800Y10064800D02*
X1627400Y10065900D01*
X1622700Y10070100D01*
X1618600Y10076400D01*
X1615900Y10083800D01*
X1614500Y10092300D01*
Y10100800D01*
X1615900Y10109300D01*
X1618600Y10116700D01*
X1622700Y10123000D01*
X1627400Y10127200D01*
X1632800Y10128300D01*
X1638200Y10127200D01*
X1642900Y10123000D01*
X1647000Y10116700D01*
X1649700Y10109300D01*
X1651100Y10100800D01*
Y10092300D01*
X1649700Y10083800D01*
X1647000Y10076400D01*
X1642900Y10070100D01*
X1638200Y10065900D01*
X1632800Y10064800D01*
G01X1688600Y10128300D02*
Y10064800D01*
G01X1673000Y10128300D02*
X1704200D01*
G01X1744400D02*
Y10064800D01*
G01X1728800Y10128300D02*
X1760000D01*
G01X1800200Y10064800D02*
X1794800Y10065900D01*
X1790100Y10070100D01*
X1786000Y10076400D01*
X1783300Y10083800D01*
X1781900Y10092300D01*
Y10100800D01*
X1783300Y10109300D01*
X1786000Y10116700D01*
X1790100Y10123000D01*
X1794800Y10127200D01*
X1800200Y10128300D01*
X1805600Y10127200D01*
X1810300Y10123000D01*
X1814400Y10116700D01*
X1817100Y10109300D01*
X1818500Y10100800D01*
Y10092300D01*
X1817100Y10083800D01*
X1814400Y10076400D01*
X1810300Y10070100D01*
X1805600Y10065900D01*
X1800200Y10064800D01*
G01X1838400D02*
Y10128300D01*
X1856000Y10075400D01*
X1873600Y10128300D01*
Y10064800D01*
G01X1373700Y8224100D02*
Y8287600D01*
X1404900Y8224100D01*
Y8287600D01*
G01X1445100Y8224100D02*
X1439700Y8225200D01*
X1435000Y8229400D01*
X1430900Y8235700D01*
X1428200Y8243100D01*
X1426800Y8251600D01*
Y8260100D01*
X1428200Y8268600D01*
X1430900Y8276000D01*
X1435000Y8282300D01*
X1439700Y8286500D01*
X1445100Y8287600D01*
X1450500Y8286500D01*
X1455200Y8282300D01*
X1459300Y8276000D01*
X1462000Y8268600D01*
X1463400Y8260100D01*
Y8251600D01*
X1462000Y8243100D01*
X1459300Y8235700D01*
X1455200Y8229400D01*
X1450500Y8225200D01*
X1445100Y8224100D01*
G01X1485300D02*
Y8287600D01*
X1516500Y8224100D01*
Y8287600D01*
G01X1547900Y8245300D02*
X1565500D01*
G01X1599000Y8224100D02*
Y8287600D01*
X1615200D01*
X1620600Y8284400D01*
X1624700Y8277000D01*
X1626000Y8268600D01*
X1624700Y8260100D01*
X1621300Y8253700D01*
X1615200Y8250600D01*
X1599000D01*
G01X1654800Y8287600D02*
Y8224100D01*
X1681800D01*
G01X1707200D02*
X1724100Y8287600D01*
X1741000Y8224100D01*
G01X1734900Y8246300D02*
X1713300D01*
G01X1779900Y8287600D02*
Y8224100D01*
G01X1764300Y8287600D02*
X1795500D01*
G01X1849200Y8224100D02*
X1822200D01*
Y8287600D01*
X1849200D01*
G01X1838400Y8256900D02*
X1822200D01*
G01X1876600Y8224100D02*
Y8287600D01*
X1890100D01*
X1895600Y8284400D01*
X1899600Y8280200D01*
X1903000Y8273800D01*
X1905700Y8266400D01*
X1906400Y8255800D01*
X1905700Y8245300D01*
X1903000Y8237900D01*
X1899600Y8231500D01*
X1895600Y8227300D01*
X1890100Y8224100D01*
X1876600D01*
G01X1487400Y8509900D02*
Y8573400D01*
X1503600D01*
X1509000Y8570200D01*
X1513100Y8562800D01*
X1514400Y8554400D01*
X1513100Y8545900D01*
X1509700Y8539500D01*
X1503600Y8536400D01*
X1487400D01*
G01X1543200Y8573400D02*
Y8509900D01*
X1570200D01*
G01X1595600D02*
X1612500Y8573400D01*
X1629400Y8509900D01*
G01X1623300Y8532100D02*
X1601700D01*
G01X1668300Y8573400D02*
Y8509900D01*
G01X1652700Y8573400D02*
X1683900D01*
G01X1737600Y8509900D02*
X1710600D01*
Y8573400D01*
X1737600D01*
G01X1726800Y8542700D02*
X1710600D01*
G01X1765000Y8509900D02*
Y8573400D01*
X1778500D01*
X1784000Y8570200D01*
X1788000Y8566000D01*
X1791400Y8559600D01*
X1794100Y8552200D01*
X1794800Y8541600D01*
X1794100Y8531100D01*
X1791400Y8523700D01*
X1788000Y8517300D01*
X1784000Y8513100D01*
X1778500Y8509900D01*
X1765000D01*
G01X1353800Y9383000D02*
Y8113000D01*
G01X1487400Y8795600D02*
Y8859100D01*
X1503600D01*
X1509000Y8855900D01*
X1513100Y8848500D01*
X1514400Y8840100D01*
X1513100Y8831600D01*
X1509700Y8825200D01*
X1503600Y8822100D01*
X1487400D01*
G01X1543200Y8859100D02*
Y8795600D01*
X1570200D01*
G01X1595600D02*
X1612500Y8859100D01*
X1629400Y8795600D01*
G01X1623300Y8817800D02*
X1601700D01*
G01X1668300Y8859100D02*
Y8795600D01*
G01X1652700Y8859100D02*
X1683900D01*
G01X1737600Y8795600D02*
X1710600D01*
Y8859100D01*
X1737600D01*
G01X1726800Y8828400D02*
X1710600D01*
G01X1765000Y8795600D02*
Y8859100D01*
X1778500D01*
X1784000Y8855900D01*
X1788000Y8851700D01*
X1791400Y8845300D01*
X1794100Y8837900D01*
X1794800Y8827300D01*
X1794100Y8816800D01*
X1791400Y8809400D01*
X1788000Y8803000D01*
X1784000Y8798800D01*
X1778500Y8795600D01*
X1765000D01*
G01X1487400Y9081400D02*
Y9144900D01*
X1503600D01*
X1509000Y9141700D01*
X1513100Y9134300D01*
X1514400Y9125900D01*
X1513100Y9117400D01*
X1509700Y9111000D01*
X1503600Y9107900D01*
X1487400D01*
G01X1543200Y9144900D02*
Y9081400D01*
X1570200D01*
G01X1595600D02*
X1612500Y9144900D01*
X1629400Y9081400D01*
G01X1623300Y9103600D02*
X1601700D01*
G01X1668300Y9144900D02*
Y9081400D01*
G01X1652700Y9144900D02*
X1683900D01*
G01X1737600Y9081400D02*
X1710600D01*
Y9144900D01*
X1737600D01*
G01X1726800Y9114200D02*
X1710600D01*
G01X1765000Y9081400D02*
Y9144900D01*
X1778500D01*
X1784000Y9141700D01*
X1788000Y9137500D01*
X1791400Y9131100D01*
X1794100Y9123700D01*
X1794800Y9113100D01*
X1794100Y9102600D01*
X1791400Y9095200D01*
X1788000Y9088800D01*
X1784000Y9084600D01*
X1778500Y9081400D01*
X1765000D01*
G01X1487400Y9287800D02*
Y9351300D01*
X1503600D01*
X1509000Y9348100D01*
X1513100Y9340700D01*
X1514400Y9332300D01*
X1513100Y9323800D01*
X1509700Y9317400D01*
X1503600Y9314300D01*
X1487400D01*
G01X1543200Y9351300D02*
Y9287800D01*
X1570200D01*
G01X1595600D02*
X1612500Y9351300D01*
X1629400Y9287800D01*
G01X1623300Y9310000D02*
X1601700D01*
G01X1668300Y9351300D02*
Y9287800D01*
G01X1652700Y9351300D02*
X1683900D01*
G01X1737600Y9287800D02*
X1710600D01*
Y9351300D01*
X1737600D01*
G01X1726800Y9320600D02*
X1710600D01*
G01X1765000Y9287800D02*
Y9351300D01*
X1778500D01*
X1784000Y9348100D01*
X1788000Y9343900D01*
X1791400Y9337500D01*
X1794100Y9330100D01*
X1794800Y9319500D01*
X1794100Y9309000D01*
X1791400Y9301600D01*
X1788000Y9295200D01*
X1784000Y9291000D01*
X1778500Y9287800D01*
X1765000D01*
G01X2110100Y8224100D02*
Y8287600D01*
X2085100Y8242100D01*
X2118900D01*
G01X2089100Y8536400D02*
X2093900Y8543800D01*
X2097900Y8548000D01*
X2103400Y8550100D01*
X2108100Y8548000D01*
X2111500Y8543800D01*
X2114200Y8537400D01*
X2114900Y8530000D01*
X2114200Y8523700D01*
X2111500Y8517300D01*
X2107400Y8512000D01*
X2102700Y8509900D01*
X2097300Y8512000D01*
X2092500Y8518400D01*
X2089800Y8527900D01*
X2089100Y8538500D01*
X2090500Y8552200D01*
X2092500Y8559600D01*
X2095900Y8567000D01*
X2100600Y8572300D01*
X2105400Y8573400D01*
X2110100Y8571300D01*
X2113500Y8566000D01*
G01X1927000Y9383000D02*
Y8113000D01*
G01X2059200Y8808300D02*
X2063300Y8800900D01*
X2068700Y8796700D01*
X2074800Y8795600D01*
X2080200Y8796700D01*
X2085600Y8801900D01*
X2089000Y8808300D01*
X2089700Y8814600D01*
X2088300Y8822100D01*
X2083600Y8827300D01*
X2078800Y8829500D01*
X2072700D01*
G01X2078800D02*
X2082900Y8832600D01*
X2086300Y8837900D01*
X2087600Y8844300D01*
X2086300Y8850600D01*
X2082900Y8855900D01*
X2076800Y8859100D01*
X2070700Y8858000D01*
X2064600Y8853800D01*
G01X2117000Y8848500D02*
X2121100Y8854900D01*
X2125800Y8858000D01*
X2131300Y8859100D01*
X2138000Y8857000D01*
X2142800Y8851700D01*
X2144100Y8845300D01*
X2143400Y8839000D01*
X2140700Y8833700D01*
X2127200Y8823100D01*
X2121100Y8815700D01*
X2117000Y8805100D01*
X2115700Y8795600D01*
X2144100D01*
G01X2082200Y9081400D02*
Y9144900D01*
X2057200Y9099400D01*
X2091000D01*
G01X2129900Y9144900D02*
X2124500Y9142800D01*
X2120400Y9137500D01*
X2117700Y9131100D01*
X2115700Y9122700D01*
X2115000Y9113100D01*
X2115700Y9103600D01*
X2117700Y9095200D01*
X2120400Y9088800D01*
X2124500Y9083500D01*
X2129900Y9081400D01*
X2135300Y9083500D01*
X2139400Y9088800D01*
X2142100Y9095200D01*
X2144100Y9103600D01*
X2144800Y9113100D01*
X2144100Y9122700D01*
X2142100Y9131100D01*
X2139400Y9137500D01*
X2135300Y9142800D01*
X2129900Y9144900D01*
G01X2046200Y9287800D02*
X2040800Y9288900D01*
X2036100Y9293100D01*
X2032000Y9299400D01*
X2029300Y9306800D01*
X2027900Y9315300D01*
Y9323800D01*
X2029300Y9332300D01*
X2032000Y9339700D01*
X2036100Y9346000D01*
X2040800Y9350200D01*
X2046200Y9351300D01*
X2051600Y9350200D01*
X2056300Y9346000D01*
X2060400Y9339700D01*
X2063100Y9332300D01*
X2064500Y9323800D01*
Y9315300D01*
X2063100Y9306800D01*
X2060400Y9299400D01*
X2056300Y9293100D01*
X2051600Y9288900D01*
X2046200Y9287800D01*
G01X2051600Y9304700D02*
X2059700Y9287800D01*
G01X2102000Y9351300D02*
Y9287800D01*
G01X2086400Y9351300D02*
X2117600D01*
G01X2157800Y9287800D02*
Y9316400D01*
X2144300Y9351300D01*
G01X2171300D02*
X2157800Y9316400D01*
M02*
