G04 ================== begin FILE IDENTIFICATION RECORD ==================*
G04 Layout Name:  C:/USERS/USER/DESKTOP/WORK/OSCILLATOR/allegro/OSCILLATOR.brd*
G04 Film Name:    SilkT*
G04 File Format:  Gerber RS274X*
G04 File Origin:  Cadence Allegro 17.2-P019*
G04 Origin Date:  Thu Aug 01 11:47:45 2019*
G04 *
G04 Layer:  BOARD GEOMETRY/DIMENSION*
G04 Layer:  BOARD GEOMETRY/DESIGN_OUTLINE*
G04 Layer:  REF DES/SILKSCREEN_TOP*
G04 Layer:  PACKAGE GEOMETRY/SILKSCREEN_TOP*
G04 Layer:  BOARD GEOMETRY/SILKSCREEN_TOP*
G04 *
G04 Offset:    (0.000 0.000)*
G04 Mirror:    No*
G04 Mode:      Positive*
G04 Rotation:  0*
G04 FullContactRelief:  No*
G04 UndefLineWidth:     0.200*
G04 ================== end FILE IDENTIFICATION RECORD ====================*
%FSLAX25Y25*MOMM*%
%IR0*IPPOS*OFA0.00000B0.00000*MIA0B0*SFA1.00000B1.00000*%
%ADD10C,.5*%
%ADD11C,.203*%
%ADD12C,.2*%
G75*
%LPD*%
G75*
G54D10*
G01X3686700Y420000D02*
X3553300D01*
Y820000D01*
X3686700D01*
G01X3633300Y626700D02*
X3553300D01*
G01X3768500Y820000D02*
Y420000D01*
X3901900D01*
G01X4117100D02*
X3983700D01*
Y820000D01*
X4117100D01*
G01X4063700Y626700D02*
X3983700D01*
G01X4338900Y786700D02*
X4318900Y806700D01*
X4295600Y820000D01*
X4268900D01*
X4238900Y800000D01*
X4215600Y766700D01*
X4198900Y726700D01*
X4185600Y660000D01*
X4182300Y600000D01*
X4188900Y540000D01*
X4198900Y500000D01*
X4218900Y460000D01*
X4242300Y433300D01*
X4265600Y420000D01*
X4288900D01*
X4312300Y433300D01*
X4332300Y453300D01*
X4348900Y480000D01*
G01X4480800Y820000D02*
Y420000D01*
G01X4404100Y820000D02*
X4557500D01*
G01X4629300Y420000D02*
Y820000D01*
X4712700D01*
X4739300Y800000D01*
X4756000Y773300D01*
X4762700Y720000D01*
X4756000Y666700D01*
X4736000Y633300D01*
X4712700Y613300D01*
X4629300D01*
G01X4712700D02*
X4762700Y420000D01*
G01X4911200D02*
X4884500Y426700D01*
X4861200Y453300D01*
X4841200Y493300D01*
X4827900Y540000D01*
X4821200Y593300D01*
Y646700D01*
X4827900Y700000D01*
X4841200Y746700D01*
X4861200Y786700D01*
X4884500Y813300D01*
X4911200Y820000D01*
X4937900Y813300D01*
X4961200Y786700D01*
X4981200Y746700D01*
X4994500Y700000D01*
X5001200Y646700D01*
Y593300D01*
X4994500Y540000D01*
X4981200Y493300D01*
X4961200Y453300D01*
X4937900Y426700D01*
X4911200Y420000D01*
G01X5049700D02*
Y820000D01*
X5203100Y420000D01*
Y820000D01*
G01X5301600D02*
X5381600D01*
G01X5341600D02*
Y420000D01*
G01X5301600D02*
X5381600D01*
G01X5630100Y786700D02*
X5610100Y806700D01*
X5586800Y820000D01*
X5560100D01*
X5530100Y800000D01*
X5506800Y766700D01*
X5490100Y726700D01*
X5476800Y660000D01*
X5473500Y600000D01*
X5480100Y540000D01*
X5490100Y500000D01*
X5510100Y460000D01*
X5533500Y433300D01*
X5556800Y420000D01*
X5580100D01*
X5603500Y433300D01*
X5623500Y453300D01*
X5640100Y480000D01*
G01X6060500Y786700D02*
X6040500Y806700D01*
X6017200Y820000D01*
X5990500D01*
X5960500Y800000D01*
X5937200Y766700D01*
X5920500Y726700D01*
X5907200Y660000D01*
X5903900Y600000D01*
X5910500Y540000D01*
X5920500Y500000D01*
X5940500Y460000D01*
X5963900Y433300D01*
X5987200Y420000D01*
X6010500D01*
X6033900Y433300D01*
X6053900Y453300D01*
X6070500Y480000D01*
G01X6119100Y420000D02*
X6202400Y820000D01*
X6285700Y420000D01*
G01X6255700Y560000D02*
X6149100D01*
G01X6344300Y420000D02*
Y820000D01*
X6410900D01*
X6437600Y800000D01*
X6457600Y773300D01*
X6474300Y733300D01*
X6487600Y686700D01*
X6490900Y620000D01*
X6487600Y553300D01*
X6474300Y506700D01*
X6457600Y466700D01*
X6437600Y440000D01*
X6410900Y420000D01*
X6344300D01*
G01X4060000Y6260000D02*
X4033300Y6266700D01*
X4010000Y6293300D01*
X3990000Y6333300D01*
X3976700Y6380000D01*
X3970000Y6433300D01*
Y6486700D01*
X3976700Y6540000D01*
X3990000Y6586700D01*
X4010000Y6626700D01*
X4033300Y6653300D01*
X4060000Y6660000D01*
X4086700Y6653300D01*
X4110000Y6626700D01*
X4130000Y6586700D01*
X4143300Y6540000D01*
X4150000Y6486700D01*
Y6433300D01*
X4143300Y6380000D01*
X4130000Y6333300D01*
X4110000Y6293300D01*
X4086700Y6266700D01*
X4060000Y6260000D01*
G01X4205200Y6313300D02*
X4231900Y6280000D01*
X4261900Y6260000D01*
X4288500D01*
X4315200Y6280000D01*
X4335200Y6313300D01*
X4345200Y6360000D01*
X4338500Y6406700D01*
X4321900Y6446700D01*
X4291900Y6473300D01*
X4251900Y6486700D01*
X4228500Y6513300D01*
X4218500Y6560000D01*
X4225200Y6606700D01*
X4241900Y6640000D01*
X4265200Y6660000D01*
X4288500D01*
X4311900Y6646700D01*
X4331900Y6613300D01*
G01X4563700Y6626700D02*
X4543700Y6646700D01*
X4520400Y6660000D01*
X4493700D01*
X4463700Y6640000D01*
X4440400Y6606700D01*
X4423700Y6566700D01*
X4410400Y6500000D01*
X4407100Y6440000D01*
X4413700Y6380000D01*
X4423700Y6340000D01*
X4443700Y6300000D01*
X4467100Y6273300D01*
X4490400Y6260000D01*
X4513700D01*
X4537100Y6273300D01*
X4557100Y6293300D01*
X4573700Y6320000D01*
G01X4665600Y6660000D02*
X4745600D01*
G01X4705600D02*
Y6260000D01*
G01X4665600D02*
X4745600D01*
G01X4854100Y6660000D02*
Y6260000D01*
X4987500D01*
G01X5069300Y6660000D02*
Y6260000D01*
X5202700D01*
G01X5267900D02*
X5351200Y6660000D01*
X5434500Y6260000D01*
G01X5404500Y6400000D02*
X5297900D01*
G01X5566400Y6660000D02*
Y6260000D01*
G01X5489700Y6660000D02*
X5643100D01*
G01X5781600Y6260000D02*
X5754900Y6266700D01*
X5731600Y6293300D01*
X5711600Y6333300D01*
X5698300Y6380000D01*
X5691600Y6433300D01*
Y6486700D01*
X5698300Y6540000D01*
X5711600Y6586700D01*
X5731600Y6626700D01*
X5754900Y6653300D01*
X5781600Y6660000D01*
X5808300Y6653300D01*
X5831600Y6626700D01*
X5851600Y6586700D01*
X5864900Y6540000D01*
X5871600Y6486700D01*
Y6433300D01*
X5864900Y6380000D01*
X5851600Y6333300D01*
X5831600Y6293300D01*
X5808300Y6266700D01*
X5781600Y6260000D01*
G01X5930100D02*
Y6660000D01*
X6013500D01*
X6040100Y6640000D01*
X6056800Y6613300D01*
X6063500Y6560000D01*
X6056800Y6506700D01*
X6036800Y6473300D01*
X6013500Y6453300D01*
X5930100D01*
G01X6013500D02*
X6063500Y6260000D01*
G54D11*
G01X1308100Y2692400D02*
Y1625600D01*
G01D02*
X1879600D01*
G01X1739900Y2692400D02*
Y1625600D01*
G01X1879600Y2692400D02*
X1308100D01*
G01X1879600Y1625600D02*
Y2692400D01*
G01X3086100D02*
Y1625600D01*
G01D02*
X3657600D01*
G01Y2692400D02*
X3086100D01*
G01X3657600Y1625600D02*
Y2692400D01*
G01X3517900D02*
Y1625600D01*
G54D12*
G01X0Y0D02*
Y7000000D01*
X10000000D01*
Y0D01*
X0D01*
G01X400000Y7622500D02*
X0Y7560000D01*
X400000Y7497500D01*
Y7622500D01*
G01X4595600Y7560000D02*
X0D01*
G01Y7250000D02*
Y7810000D01*
G01X373000Y4127000D02*
X627000D01*
Y3365000D01*
X373000D01*
Y4127000D01*
G01X377300Y4398100D02*
X389200Y4379000D01*
X403400Y4366300D01*
X420000Y4360000D01*
X438900Y4366300D01*
X453100Y4379000D01*
X467400Y4398100D01*
X472100Y4423500D01*
Y4550500D01*
G01X570200Y4518800D02*
X584400Y4537800D01*
X601000Y4547300D01*
X619900Y4550500D01*
X643600Y4544200D01*
X660200Y4528300D01*
X665000Y4509200D01*
X662600Y4490200D01*
X653100Y4474300D01*
X605700Y4442500D01*
X584400Y4420300D01*
X570200Y4388600D01*
X565400Y4360000D01*
X665000D01*
G01X1439000Y2990500D02*
Y2854000D01*
X1448400Y2825400D01*
X1467400Y2806300D01*
X1491100Y2800000D01*
X1514800Y2806300D01*
X1533800Y2825400D01*
X1543200Y2854000D01*
Y2990500D01*
G01X1636600Y2879400D02*
X1653200Y2901600D01*
X1667400Y2914300D01*
X1686300Y2920600D01*
X1702900Y2914300D01*
X1714800Y2901600D01*
X1724300Y2882500D01*
X1726600Y2860300D01*
X1724300Y2841300D01*
X1714800Y2822200D01*
X1700600Y2806300D01*
X1684000Y2800000D01*
X1665000Y2806300D01*
X1648400Y2825400D01*
X1638900Y2854000D01*
X1636600Y2885700D01*
X1641300Y2927000D01*
X1648400Y2949200D01*
X1660300Y2971400D01*
X1676900Y2987300D01*
X1693400Y2990500D01*
X1710000Y2984200D01*
X1721900Y2968300D01*
G01X2047000Y4007600D02*
Y3296400D01*
X1793000D01*
Y4007600D01*
X2047000D01*
G01X1173000Y3153000D02*
Y3661000D01*
X1427000D01*
Y3153000D01*
X1173000D01*
G01X1236800Y4074600D02*
X1222600Y4084200D01*
X1206000Y4090500D01*
X1187100D01*
X1165700Y4081000D01*
X1149200Y4065100D01*
X1137300Y4046000D01*
X1127800Y4014300D01*
X1125400Y3985700D01*
X1130200Y3957100D01*
X1137300Y3938100D01*
X1151500Y3919000D01*
X1168100Y3906300D01*
X1184700Y3900000D01*
X1201300D01*
X1217900Y3906300D01*
X1232100Y3915900D01*
X1244000Y3928600D01*
G01X1330200Y4058800D02*
X1344400Y4077800D01*
X1361000Y4087300D01*
X1379900Y4090500D01*
X1403600Y4084200D01*
X1420200Y4068300D01*
X1425000Y4049200D01*
X1422600Y4030200D01*
X1413100Y4014300D01*
X1365700Y3982500D01*
X1344400Y3960300D01*
X1330200Y3928600D01*
X1325400Y3900000D01*
X1425000D01*
G01X1757300Y4240000D02*
Y4430500D01*
X1816500D01*
X1835500Y4421000D01*
X1847400Y4408300D01*
X1852100Y4382900D01*
X1847400Y4357500D01*
X1833100Y4341600D01*
X1816500Y4332100D01*
X1757300D01*
G01X1816500D02*
X1852100Y4240000D01*
G01X1954900Y4262200D02*
X1971500Y4246300D01*
X1990500Y4240000D01*
X2009400Y4246300D01*
X2026000Y4265400D01*
X2037900Y4294000D01*
X2042600Y4322500D01*
Y4357500D01*
X2037900Y4386000D01*
X2026000Y4411400D01*
X2011800Y4424200D01*
X1995200Y4430500D01*
X1976200Y4424200D01*
X1962000Y4411400D01*
X1952500Y4392400D01*
X1947800Y4367000D01*
X1952500Y4344800D01*
X1964400Y4322500D01*
X1978600Y4309800D01*
X1995200Y4306700D01*
X2014200Y4313000D01*
X2028400Y4328900D01*
X2042600Y4357500D01*
G01X1848500Y5521000D02*
X2483500D01*
Y5013000D01*
X1848500D01*
Y5521000D01*
G01X2356800Y1414600D02*
X2342600Y1424200D01*
X2326000Y1430500D01*
X2307100D01*
X2285700Y1421000D01*
X2269200Y1405100D01*
X2257300Y1386000D01*
X2247800Y1354300D01*
X2245400Y1325700D01*
X2250200Y1297100D01*
X2257300Y1278100D01*
X2271500Y1259000D01*
X2288100Y1246300D01*
X2304700Y1240000D01*
X2321300D01*
X2337900Y1246300D01*
X2352100Y1255900D01*
X2364000Y1268600D01*
G01X2450200Y1319400D02*
X2466800Y1341600D01*
X2481000Y1354300D01*
X2499900Y1360600D01*
X2516500Y1354300D01*
X2528400Y1341600D01*
X2537900Y1322500D01*
X2540200Y1300300D01*
X2537900Y1281300D01*
X2528400Y1262200D01*
X2514200Y1246300D01*
X2497600Y1240000D01*
X2478600Y1246300D01*
X2462000Y1265400D01*
X2452500Y1294000D01*
X2450200Y1325700D01*
X2454900Y1367000D01*
X2462000Y1389200D01*
X2473900Y1411400D01*
X2490500Y1427300D01*
X2507000Y1430500D01*
X2523600Y1424200D01*
X2535500Y1408300D01*
G01X2286000Y1524000D02*
Y2032000D01*
X2540000D01*
Y1524000D01*
X2286000D01*
G01Y2222500D02*
Y2730500D01*
X2540000D01*
Y2222500D01*
X2286000D01*
G01X2376800Y3074600D02*
X2362600Y3084200D01*
X2346000Y3090500D01*
X2327100D01*
X2305700Y3081000D01*
X2289200Y3065100D01*
X2277300Y3046000D01*
X2267800Y3014300D01*
X2265400Y2985700D01*
X2270200Y2957100D01*
X2277300Y2938100D01*
X2291500Y2919000D01*
X2308100Y2906300D01*
X2324700Y2900000D01*
X2341300D01*
X2357900Y2906300D01*
X2372100Y2915900D01*
X2384000Y2928600D01*
G01X2463100D02*
X2477300Y2912700D01*
X2493900Y2903200D01*
X2515200Y2900000D01*
X2536500Y2906300D01*
X2553100Y2919000D01*
X2565000Y2941300D01*
X2567300Y2966700D01*
X2562600Y2992100D01*
X2550700Y3008000D01*
X2534200Y3020600D01*
X2517600Y3023800D01*
X2501000Y3020600D01*
X2479700Y3008000D01*
X2486800Y3090500D01*
X2550700D01*
G01X2313000Y3312400D02*
Y4023600D01*
X2567000D01*
Y3312400D01*
X2313000D01*
G01X2337300Y4220000D02*
Y4410500D01*
X2396500D01*
X2415500Y4401000D01*
X2427400Y4388300D01*
X2432100Y4362900D01*
X2427400Y4337500D01*
X2413100Y4321600D01*
X2396500Y4312100D01*
X2337300D01*
G01X2396500D02*
X2432100Y4220000D01*
G01X2575200D02*
Y4410500D01*
X2546800Y4372400D01*
G01Y4220000D02*
X2603600D01*
G01X1977300Y5720000D02*
Y5910500D01*
X2036500D01*
X2055500Y5901000D01*
X2067400Y5888300D01*
X2072100Y5862900D01*
X2067400Y5837500D01*
X2053100Y5821600D01*
X2036500Y5812100D01*
X1977300D01*
G01X2036500D02*
X2072100Y5720000D01*
G01X2210500D02*
X2215200Y5761300D01*
X2222300Y5796200D01*
X2231800Y5828000D01*
X2243600Y5862900D01*
X2262600Y5910500D01*
X2167800D01*
G01X3259000Y3050500D02*
Y2914000D01*
X3268400Y2885400D01*
X3287400Y2866300D01*
X3311100Y2860000D01*
X3334800Y2866300D01*
X3353800Y2885400D01*
X3363200Y2914000D01*
Y3050500D01*
G01X3449500Y2888600D02*
X3463700Y2872700D01*
X3480300Y2863200D01*
X3501600Y2860000D01*
X3522900Y2866300D01*
X3539500Y2879000D01*
X3551400Y2901300D01*
X3553700Y2926700D01*
X3549000Y2952100D01*
X3537100Y2968000D01*
X3520600Y2980600D01*
X3504000Y2983800D01*
X3487400Y2980600D01*
X3466100Y2968000D01*
X3473200Y3050500D01*
X3537100D01*
G01X3127000Y4007600D02*
Y3296400D01*
X2873000D01*
Y4007600D01*
X3127000D01*
G01X2877300Y4220000D02*
Y4410500D01*
X2936500D01*
X2955500Y4401000D01*
X2967400Y4388300D01*
X2972100Y4362900D01*
X2967400Y4337500D01*
X2953100Y4321600D01*
X2936500Y4312100D01*
X2877300D01*
G01X2936500D02*
X2972100Y4220000D01*
G01X3063100Y4248600D02*
X3077300Y4232700D01*
X3093900Y4223200D01*
X3115200Y4220000D01*
X3136500Y4226300D01*
X3153100Y4239000D01*
X3165000Y4261300D01*
X3167300Y4286700D01*
X3162600Y4312100D01*
X3150700Y4328000D01*
X3134200Y4340600D01*
X3117600Y4343800D01*
X3101000Y4340600D01*
X3079700Y4328000D01*
X3086800Y4410500D01*
X3150700D01*
G01X2753000Y4801600D02*
Y4954000D01*
X2816500Y5017500D01*
Y5144500D01*
X2753000Y5208000D01*
Y5360400D01*
X3769000D01*
Y4801600D01*
X2753000D01*
G01X3132600Y5750500D02*
Y5614000D01*
X3142000Y5585400D01*
X3161000Y5566300D01*
X3184700Y5560000D01*
X3208400Y5566300D01*
X3227400Y5585400D01*
X3236800Y5614000D01*
Y5750500D01*
G01X3375200Y5560000D02*
Y5750500D01*
X3346800Y5712400D01*
G01Y5560000D02*
X3403600D01*
G01X4318000Y2032000D02*
Y1524000D01*
X4064000D01*
Y2032000D01*
X4318000D01*
G01X4064000Y2286000D02*
Y2794000D01*
X4318000D01*
Y2286000D01*
X4064000D01*
G01X4576800Y1934600D02*
X4562600Y1944200D01*
X4546000Y1950500D01*
X4527100D01*
X4505700Y1941000D01*
X4489200Y1925100D01*
X4477300Y1906000D01*
X4467800Y1874300D01*
X4465400Y1845700D01*
X4470200Y1817100D01*
X4477300Y1798100D01*
X4491500Y1779000D01*
X4508100Y1766300D01*
X4524700Y1760000D01*
X4541300D01*
X4557900Y1766300D01*
X4572100Y1775900D01*
X4584000Y1788600D01*
G01X4743600Y1760000D02*
Y1950500D01*
X4655900Y1814000D01*
X4774500D01*
G01X4536800Y2634600D02*
X4522600Y2644200D01*
X4506000Y2650500D01*
X4487100D01*
X4465700Y2641000D01*
X4449200Y2625100D01*
X4437300Y2606000D01*
X4427800Y2574300D01*
X4425400Y2545700D01*
X4430200Y2517100D01*
X4437300Y2498100D01*
X4451500Y2479000D01*
X4468100Y2466300D01*
X4484700Y2460000D01*
X4501300D01*
X4517900Y2466300D01*
X4532100Y2475900D01*
X4544000Y2488600D01*
G01X4623100Y2498100D02*
X4637300Y2475900D01*
X4656200Y2463200D01*
X4677600Y2460000D01*
X4696500Y2463200D01*
X4715500Y2479000D01*
X4727300Y2498100D01*
X4729700Y2517100D01*
X4725000Y2539400D01*
X4708400Y2555200D01*
X4691800Y2561600D01*
X4670500D01*
G01X4691800D02*
X4706000Y2571100D01*
X4717900Y2587000D01*
X4722600Y2606000D01*
X4717900Y2625100D01*
X4706000Y2641000D01*
X4684700Y2650500D01*
X4663400Y2647300D01*
X4642000Y2634600D01*
G01X4353000Y3272400D02*
Y3983600D01*
X4607000D01*
Y3272400D01*
X4353000D01*
G01X4237300Y4260000D02*
Y4450500D01*
X4296500D01*
X4315500Y4441000D01*
X4327400Y4428300D01*
X4332100Y4402900D01*
X4327400Y4377500D01*
X4313100Y4361600D01*
X4296500Y4352100D01*
X4237300D01*
G01X4296500D02*
X4332100Y4260000D01*
G01X4475200D02*
X4491800Y4263200D01*
X4510700Y4272700D01*
X4522600Y4288600D01*
X4527300Y4310800D01*
X4522600Y4333000D01*
X4508400Y4352100D01*
X4487000Y4361600D01*
X4463400D01*
X4449100Y4368000D01*
X4437300Y4383800D01*
X4432500Y4406000D01*
X4439700Y4428300D01*
X4456200Y4444200D01*
X4475200Y4450500D01*
X4494200Y4444200D01*
X4510700Y4428300D01*
X4517900Y4406000D01*
X4513100Y4383800D01*
X4501300Y4368000D01*
X4487000Y4361600D01*
X4463400D01*
X4442000Y4352100D01*
X4427800Y4333000D01*
X4423100Y4310800D01*
X4427800Y4288600D01*
X4439700Y4272700D01*
X4458600Y4263200D01*
X4475200Y4260000D01*
G01X4956800Y4414600D02*
X4942600Y4424200D01*
X4926000Y4430500D01*
X4907100D01*
X4885700Y4421000D01*
X4869200Y4405100D01*
X4857300Y4386000D01*
X4847800Y4354300D01*
X4845400Y4325700D01*
X4850200Y4297100D01*
X4857300Y4278100D01*
X4871500Y4259000D01*
X4888100Y4246300D01*
X4904700Y4240000D01*
X4921300D01*
X4937900Y4246300D01*
X4952100Y4255900D01*
X4964000Y4268600D01*
G01X5095200Y4240000D02*
Y4430500D01*
X5066800Y4392400D01*
G01Y4240000D02*
X5123600D01*
G01X4293000Y4781600D02*
Y4934000D01*
X4356500Y4997500D01*
Y5124500D01*
X4293000Y5188000D01*
Y5340400D01*
X5309000D01*
Y4781600D01*
X4293000D01*
G01X4612600Y5750500D02*
Y5614000D01*
X4622000Y5585400D01*
X4641000Y5566300D01*
X4664700Y5560000D01*
X4688400Y5566300D01*
X4707400Y5585400D01*
X4716800Y5614000D01*
Y5750500D01*
G01X4810200Y5718800D02*
X4824400Y5737800D01*
X4841000Y5747300D01*
X4859900Y5750500D01*
X4883600Y5744200D01*
X4900200Y5728300D01*
X4905000Y5709200D01*
X4902600Y5690200D01*
X4893100Y5674300D01*
X4845700Y5642500D01*
X4824400Y5620300D01*
X4810200Y5588600D01*
X4805400Y5560000D01*
X4905000D01*
G01X4809500Y7464700D02*
Y7655200D01*
X4781100Y7617100D01*
G01Y7464700D02*
X4837900D01*
G01X5000000Y7655200D02*
X4981000Y7648900D01*
X4966800Y7633000D01*
X4957300Y7613900D01*
X4950200Y7588500D01*
X4947900Y7559900D01*
X4950200Y7531400D01*
X4957300Y7506000D01*
X4966800Y7486900D01*
X4981000Y7471000D01*
X5000000Y7464700D01*
X5019000Y7471000D01*
X5033200Y7486900D01*
X5042700Y7506000D01*
X5049800Y7531400D01*
X5052100Y7559900D01*
X5049800Y7588500D01*
X5042700Y7613900D01*
X5033200Y7633000D01*
X5019000Y7648900D01*
X5000000Y7655200D01*
G01X5190500D02*
X5171500Y7648900D01*
X5157300Y7633000D01*
X5147800Y7613900D01*
X5140700Y7588500D01*
X5138400Y7559900D01*
X5140700Y7531400D01*
X5147800Y7506000D01*
X5157300Y7486900D01*
X5171500Y7471000D01*
X5190500Y7464700D01*
X5209500Y7471000D01*
X5223700Y7486900D01*
X5233200Y7506000D01*
X5240300Y7531400D01*
X5242600Y7559900D01*
X5240300Y7588500D01*
X5233200Y7613900D01*
X5223700Y7633000D01*
X5209500Y7648900D01*
X5190500Y7655200D01*
G01X4933000Y3473000D02*
Y3981000D01*
X5187000D01*
Y3473000D01*
X4933000D01*
G01X5557300Y4240000D02*
Y4430500D01*
X5616500D01*
X5635500Y4421000D01*
X5647400Y4408300D01*
X5652100Y4382900D01*
X5647400Y4357500D01*
X5633100Y4341600D01*
X5616500Y4332100D01*
X5557300D01*
G01X5616500D02*
X5652100Y4240000D01*
G01X5750200Y4398800D02*
X5764400Y4417800D01*
X5781000Y4427300D01*
X5799900Y4430500D01*
X5823600Y4424200D01*
X5840200Y4408300D01*
X5845000Y4389200D01*
X5842600Y4370200D01*
X5833100Y4354300D01*
X5785700Y4322500D01*
X5764400Y4300300D01*
X5750200Y4268600D01*
X5745400Y4240000D01*
X5845000D01*
G01X5404400Y7560000D02*
X10000000D01*
G01X5673000Y3272400D02*
Y3983600D01*
X5927000D01*
Y3272400D01*
X5673000D01*
G01X6547000Y3967600D02*
Y3256400D01*
X6293000D01*
Y3967600D01*
X6547000D01*
G01X6157300Y4240000D02*
Y4430500D01*
X6216500D01*
X6235500Y4421000D01*
X6247400Y4408300D01*
X6252100Y4382900D01*
X6247400Y4357500D01*
X6233100Y4341600D01*
X6216500Y4332100D01*
X6157300D01*
G01X6216500D02*
X6252100Y4240000D01*
G01X6343100Y4278100D02*
X6357300Y4255900D01*
X6376200Y4243200D01*
X6397600Y4240000D01*
X6416500Y4243200D01*
X6435500Y4259000D01*
X6447300Y4278100D01*
X6449700Y4297100D01*
X6445000Y4319400D01*
X6428400Y4335200D01*
X6411800Y4341600D01*
X6390500D01*
G01X6411800D02*
X6426000Y4351100D01*
X6437900Y4367000D01*
X6442600Y4386000D01*
X6437900Y4405100D01*
X6426000Y4421000D01*
X6404700Y4430500D01*
X6383400Y4427300D01*
X6362000Y4414600D01*
G01X5873000Y4781600D02*
Y4934000D01*
X5936500Y4997500D01*
Y5124500D01*
X5873000Y5188000D01*
Y5340400D01*
X6889000D01*
Y4781600D01*
X5873000D01*
G01X6192600Y5750500D02*
Y5614000D01*
X6202000Y5585400D01*
X6221000Y5566300D01*
X6244700Y5560000D01*
X6268400Y5566300D01*
X6287400Y5585400D01*
X6296800Y5614000D01*
Y5750500D01*
G01X6383100Y5598100D02*
X6397300Y5575900D01*
X6416200Y5563200D01*
X6437600Y5560000D01*
X6456500Y5563200D01*
X6475500Y5579000D01*
X6487300Y5598100D01*
X6489700Y5617100D01*
X6485000Y5639400D01*
X6468400Y5655200D01*
X6451800Y5661600D01*
X6430500D01*
G01X6451800D02*
X6466000Y5671100D01*
X6477900Y5687000D01*
X6482600Y5706000D01*
X6477900Y5725100D01*
X6466000Y5741000D01*
X6444700Y5750500D01*
X6423400Y5747300D01*
X6402000Y5734600D01*
G01X7087000Y3967600D02*
Y3256400D01*
X6833000D01*
Y3967600D01*
X7087000D01*
G01X6702100Y4220000D02*
Y4410500D01*
X6761300D01*
X6780300Y4401000D01*
X6792200Y4388300D01*
X6796900Y4362900D01*
X6792200Y4337500D01*
X6777900Y4321600D01*
X6761300Y4312100D01*
X6702100D01*
G01X6761300D02*
X6796900Y4220000D01*
G01X6940000D02*
Y4410500D01*
X6911600Y4372400D01*
G01Y4220000D02*
X6968400D01*
G01X7130500D02*
Y4410500D01*
X7102100Y4372400D01*
G01Y4220000D02*
X7158900D01*
G01X8127000Y3987600D02*
Y3276400D01*
X7873000D01*
Y3987600D01*
X8127000D01*
G01X7373000Y3272400D02*
Y3983600D01*
X7627000D01*
Y3272400D01*
X7373000D01*
G01X7937300Y4240000D02*
Y4430500D01*
X7996500D01*
X8015500Y4421000D01*
X8027400Y4408300D01*
X8032100Y4382900D01*
X8027400Y4357500D01*
X8013100Y4341600D01*
X7996500Y4332100D01*
X7937300D01*
G01X7996500D02*
X8032100Y4240000D01*
G01X8130200Y4319400D02*
X8146800Y4341600D01*
X8161000Y4354300D01*
X8179900Y4360600D01*
X8196500Y4354300D01*
X8208400Y4341600D01*
X8217900Y4322500D01*
X8220200Y4300300D01*
X8217900Y4281300D01*
X8208400Y4262200D01*
X8194200Y4246300D01*
X8177600Y4240000D01*
X8158600Y4246300D01*
X8142000Y4265400D01*
X8132500Y4294000D01*
X8130200Y4325700D01*
X8134900Y4367000D01*
X8142000Y4389200D01*
X8153900Y4411400D01*
X8170500Y4427300D01*
X8187000Y4430500D01*
X8203600Y4424200D01*
X8215500Y4408300D01*
G01X7302100Y4220000D02*
Y4410500D01*
X7361300D01*
X7380300Y4401000D01*
X7392200Y4388300D01*
X7396900Y4362900D01*
X7392200Y4337500D01*
X7377900Y4321600D01*
X7361300Y4312100D01*
X7302100D01*
G01X7361300D02*
X7396900Y4220000D01*
G01X7540000D02*
Y4410500D01*
X7511600Y4372400D01*
G01Y4220000D02*
X7568400D01*
G01X7730500Y4410500D02*
X7711500Y4404200D01*
X7697300Y4388300D01*
X7687800Y4369200D01*
X7680700Y4343800D01*
X7678400Y4315200D01*
X7680700Y4286700D01*
X7687800Y4261300D01*
X7697300Y4242200D01*
X7711500Y4226300D01*
X7730500Y4220000D01*
X7749500Y4226300D01*
X7763700Y4242200D01*
X7773200Y4261300D01*
X7780300Y4286700D01*
X7782600Y4315200D01*
X7780300Y4343800D01*
X7773200Y4369200D01*
X7763700Y4388300D01*
X7749500Y4404200D01*
X7730500Y4410500D01*
G01X7613000Y4781600D02*
Y4934000D01*
X7676500Y4997500D01*
Y5124500D01*
X7613000Y5188000D01*
Y5340400D01*
X8629000D01*
Y4781600D01*
X7613000D01*
G01X7932600Y5770500D02*
Y5634000D01*
X7942000Y5605400D01*
X7961000Y5586300D01*
X7984700Y5580000D01*
X8008400Y5586300D01*
X8027400Y5605400D01*
X8036800Y5634000D01*
Y5770500D01*
G01X8203600Y5580000D02*
Y5770500D01*
X8115900Y5634000D01*
X8234500D01*
G01X8647000Y3967600D02*
Y3256400D01*
X8393000D01*
Y3967600D01*
X8647000D01*
G01X8457300Y4180000D02*
Y4370500D01*
X8516500D01*
X8535500Y4361000D01*
X8547400Y4348300D01*
X8552100Y4322900D01*
X8547400Y4297500D01*
X8533100Y4281600D01*
X8516500Y4272100D01*
X8457300D01*
G01X8516500D02*
X8552100Y4180000D01*
G01X8723600D02*
Y4370500D01*
X8635900Y4234000D01*
X8754500D01*
G01X9627000Y3373000D02*
X9373000D01*
Y3881000D01*
X9627000D01*
Y3373000D01*
G01X9277300Y4138100D02*
X9289200Y4119000D01*
X9303400Y4106300D01*
X9320000Y4100000D01*
X9338900Y4106300D01*
X9353100Y4119000D01*
X9367400Y4138100D01*
X9372100Y4163500D01*
Y4290500D01*
G01X9515200Y4100000D02*
Y4290500D01*
X9486800Y4252400D01*
G01Y4100000D02*
X9543600D01*
G01X9600000Y7497500D02*
X10000000Y7560000D01*
X9600000Y7622500D01*
Y7497500D01*
G01X10000000Y7250000D02*
Y7810000D01*
G01X10417500Y400000D02*
X10480000Y0D01*
X10542500Y400000D01*
X10417500D01*
G01X10480000Y3442000D02*
Y0D01*
G01X10250000D02*
X10730000D01*
G01X10380000Y3584700D02*
X10384700Y3626000D01*
X10391800Y3660900D01*
X10401300Y3692700D01*
X10413100Y3727600D01*
X10432100Y3775200D01*
X10337300D01*
G01X10575200D02*
X10556200Y3768900D01*
X10542000Y3753000D01*
X10532500Y3733900D01*
X10525400Y3708500D01*
X10523100Y3679900D01*
X10525400Y3651400D01*
X10532500Y3626000D01*
X10542000Y3606900D01*
X10556200Y3591000D01*
X10575200Y3584700D01*
X10594200Y3591000D01*
X10608400Y3606900D01*
X10617900Y3626000D01*
X10625000Y3651400D01*
X10627300Y3679900D01*
X10625000Y3708500D01*
X10617900Y3733900D01*
X10608400Y3753000D01*
X10594200Y3768900D01*
X10575200Y3775200D01*
G01X10480000Y3918000D02*
Y7000000D01*
G01X10542500Y6600000D02*
X10480000Y7000000D01*
X10417500Y6600000D01*
X10542500D01*
G01X10250000Y7000000D02*
X10730000D01*
M02*
