G04 ================== begin FILE IDENTIFICATION RECORD ==================*
G04 Layout Name:  C:/USERS/USER/DESKTOP/WORK/OSCILLATOR/allegro/OSCILLATOR.brd*
G04 Film Name:    TOP*
G04 File Format:  Gerber RS274X*
G04 File Origin:  Cadence Allegro 17.2-P019*
G04 Origin Date:  Thu Aug 01 11:47:45 2019*
G04 *
G04 Layer:  ETCH/TOP*
G04 Layer:  PIN/TOP*
G04 Layer:  VIA CLASS/TOP*
G04 *
G04 Offset:    (0.000 0.000)*
G04 Mirror:    No*
G04 Mode:      Positive*
G04 Rotation:  0*
G04 FullContactRelief:  No*
G04 UndefLineWidth:     0.000*
G04 ================== end FILE IDENTIFICATION RECORD ====================*
%FSLAX25Y25*MOMM*%
%IR0*IPPOS*OFA0.00000B0.00000*MIA0B0*SFA1.00000B1.00000*%
%ADD12C,1.524*%
%ADD15C,1.651*%
%ADD13C,1.905*%
%ADD16R,1.524X1.524*%
%ADD14R,1.905X1.905*%
%ADD11C,.61*%
%ADD10C,.635*%
%ADD17C,1.*%
%ADD18C,.5*%
%ADD21C,2.036*%
%ADD19C,2.164*%
%ADD20C,2.418*%
G75*
%LPD*%
G75*
G36*
G01X754200Y500000D02*
Y754200D01*
X500000D01*
Y3390200D01*
G03Y3593800I0J101800D01*
G01Y3644200D01*
G03Y3847800I0J101800D01*
G01Y3898200D01*
G03X588300Y3949400I0J101742D01*
G01X867500D01*
X901900Y3915000D01*
Y2886500D01*
X981500Y2806900D01*
X3281000D01*
X3314900Y2773000D01*
Y2533800D01*
X3270200D01*
G03X3244600Y2508200I0J-25600D01*
G01Y2317800D01*
G03X3270200Y2292200I25600J0D01*
G01X3460800D01*
G03X3486400Y2317800I0J25600D01*
G01Y2362400D01*
X4095400D01*
G03Y2463600I95600J50600D01*
G01X3486400D01*
Y2508200D01*
G03X3460800Y2533800I-25600J0D01*
G01X3416100D01*
Y2815000D01*
X3323000Y2908100D01*
X1023500D01*
X1003100Y2928500D01*
Y3957000D01*
X909500Y4050600D01*
X588300D01*
G03X500000Y4101800I-88300J-50542D01*
G01Y6245800D01*
X754200D01*
Y6500000D01*
X9245800D01*
Y6245800D01*
X9500000D01*
Y3855800D01*
G03Y3652200I0J-101800D01*
G01Y3601800D01*
G03Y3398200I0J-101800D01*
G01Y754200D01*
X9245800D01*
Y500000D01*
X754200D01*
G37*
%LPC*%
G75*
G36*
G01X7638200Y4603800D02*
Y4756200D01*
G02X7663800Y4781800I25600J0D01*
G01X7816200D01*
G02X7841800Y4756200I0J-25600D01*
G01Y4603800D01*
G02X7816200Y4578200I-25600J0D01*
G01X7663800D01*
G02X7638200Y4603800I0J25600D01*
G37*
G36*
G01X5898200D02*
Y4756200D01*
G02X5923800Y4781800I25600J0D01*
G01X6076200D01*
G02X6101800Y4756200I0J-25600D01*
G01Y4603800D01*
G02X6076200Y4578200I-25600J0D01*
G01X5923800D01*
G02X5898200Y4603800I0J25600D01*
G37*
G36*
G01X4318200D02*
Y4756200D01*
G02X4343800Y4781800I25600J0D01*
G01X4496200D01*
G02X4521800Y4756200I0J-25600D01*
G01Y4603800D01*
G02X4496200Y4578200I-25600J0D01*
G01X4343800D01*
G02X4318200Y4603800I0J25600D01*
G37*
G36*
G01X2778200Y4623800D02*
Y4776200D01*
G02X2803800Y4801800I25600J0D01*
G01X2956200D01*
G02X2981800Y4776200I0J-25600D01*
G01Y4623800D01*
G02X2956200Y4598200I-25600J0D01*
G01X2803800D01*
G02X2778200Y4623800I0J25600D01*
G37*
G36*
G01X1466600Y2317800D02*
Y2508200D01*
G02X1492200Y2533800I25600J0D01*
G01X1682800D01*
G02X1708400Y2508200I0J-25600D01*
G01Y2317800D01*
G02X1682800Y2292200I-25600J0D01*
G01X1492200D01*
G02X1466600Y2317800I0J25600D01*
G37*
G36*
G01X2195000Y5089400D02*
X2115400Y5169000D01*
Y5305700D01*
G02X2216600I50600J88300D01*
G01Y5211000D01*
X2237000Y5190600D01*
X2331700D01*
G02X2508300I88300J-50600D01*
G01X3316900D01*
X3337400Y5211100D01*
Y5373700D01*
G02X3438600I50600J88300D01*
G01Y5169100D01*
X3358900Y5089400D01*
X2508300D01*
G02X2331700I-88300J50600D01*
G01X2195000D01*
G37*
G36*
G01X2888000Y4210600D02*
X2904400D01*
G02Y4109400I95600J-50600D01*
G01X2846000D01*
X2830000Y4125400D01*
X2535600D01*
G02Y4226600I-95600J50600D01*
G01X2872000D01*
X2888000Y4210600D01*
G37*
G36*
G01X1962600Y5030500D02*
X2053000Y4940100D01*
X3082500D01*
X3162100Y4860500D01*
Y4797800D01*
G02X3060900Y4770800I-28104J-97817D01*
G01Y4818500D01*
X3040500Y4838900D01*
X2011000D01*
X1988000Y4861900D01*
G03X1970600Y4854700I-7213J-7194D01*
G01Y4255600D01*
G02X1869400I-50600J-95600D01*
G01Y4980500D01*
X1861400Y4988500D01*
Y5051700D01*
G02X1962600I50600J88300D01*
G01Y5030500D01*
G37*
G36*
G01X7884000Y4085400D02*
X7595600D01*
G02Y4186600I-95600J50600D01*
G01X7842000D01*
X7846000Y4190600D01*
X7904400D01*
G02Y4089400I95600J-50600D01*
G01X7888000D01*
X7884000Y4085400D01*
G37*
G36*
G01X7010600Y4361800D02*
Y4215600D01*
G02X6909400I-50600J-95600D01*
G01Y4319800D01*
X6901200Y4328000D01*
X6268400D01*
X6203400Y4393000D01*
Y4591700D01*
G02X6304600I50600J88300D01*
G01Y4435000D01*
X6310400Y4429200D01*
X6943200D01*
X7010600Y4361800D01*
G37*
G36*
G01X5335500Y3803400D02*
X5155600D01*
G02Y3904600I-95600J50600D01*
G01X5293500D01*
X5346900Y3958000D01*
Y4098500D01*
X5426500Y4178100D01*
X5637500D01*
X5646000Y4186600D01*
X5704400D01*
G02X5895600I95600J-50600D01*
G01X6292000D01*
X6308000Y4170600D01*
X6324400D01*
G02Y4069400I95600J-50600D01*
G01X6266000D01*
X6250000Y4085400D01*
X5895600D01*
G02X5704400I-95600J50600D01*
G01X5688000D01*
X5679500Y4076900D01*
X5468500D01*
X5448100Y4056500D01*
Y3916000D01*
X5335500Y3803400D01*
G37*
G36*
G01X5122500Y3069400D02*
X5009400Y3182500D01*
Y3504400D01*
G02X4964400Y3549400I50600J95600D01*
G01X3881000D01*
X3860600Y3529000D01*
Y3173000D01*
X3781000Y3093400D01*
X3095600D01*
G02Y3194600I-95600J50600D01*
G01X3739000D01*
X3759400Y3215000D01*
Y3571000D01*
X3839000Y3650600D01*
X4964400D01*
G02X5110600Y3504400I95600J-50600D01*
G01Y3224500D01*
X5164500Y3170600D01*
X5704400D01*
G02Y3069400I95600J-50600D01*
G01X5122500D01*
G37*
G36*
G01X2490600Y3064400D02*
Y3006000D01*
X2405000Y2920400D01*
X1329000D01*
X1249400Y3000000D01*
Y3184400D01*
G02X1350600I50600J95600D01*
G01Y3042000D01*
X1371000Y3021600D01*
X2363000D01*
X2389400Y3048000D01*
Y3064400D01*
G02X2490600I50600J95600D01*
G37*
G36*
G01X8051600Y2950000D02*
X7972000Y2870400D01*
X6449000D01*
X6369400Y2950000D01*
Y3008400D01*
G02X6470600I50600J95600D01*
G01Y2992000D01*
X6491000Y2971600D01*
X7930000D01*
X7950400Y2992000D01*
Y3027800D01*
G02X8095600Y3174600I49574J96175D01*
G01X8388000D01*
X8408000Y3154600D01*
X8424400D01*
G02Y3053400I95600J-50600D01*
G01X8366000D01*
X8346000Y3073400D01*
X8095600D01*
G02X8051600Y3028900I-95643J50566D01*
G01Y2950000D01*
G37*
G36*
G01X2053000Y2108400D02*
X1697300D01*
G02Y2209600I-109800J50600D01*
G01X2011000D01*
X2044900Y2243500D01*
Y2574500D01*
X2124500Y2654100D01*
X2317400D01*
G02Y2552900I95600J-50600D01*
G01X2166500D01*
X2146100Y2532500D01*
Y2201500D01*
X2053000Y2108400D01*
G37*
G36*
G01X4113600Y1829400D02*
X3459800D01*
G02Y1980600I-94300J75600D01*
G01X4113600D01*
G02Y1829400I77400J-75600D01*
G37*
G36*
G01X2335600D02*
X1681800D01*
G02Y1980600I-94300J75600D01*
G01X2335600D01*
G02Y1829400I77400J-75600D01*
G37*
G36*
G01X4519600Y5463000D02*
G02X4441000Y5541600I-99600J-21000D01*
G03X4450300Y5558800I2080J9989D01*
G01X4433200Y5575900D01*
X3209600D01*
Y5530200D01*
G02X3058400I-75600J-68200D01*
G01Y5644900D01*
X3140600Y5727100D01*
X4495800D01*
X4631800Y5591200D01*
X4767700Y5727100D01*
X6075800D01*
X6199200Y5603700D01*
X6322700Y5727100D01*
X7932300D01*
X8076600Y5582800D01*
Y5501500D01*
G02X7923200Y5515100I-82579J-59511D01*
G03Y5522400I-3581J3650D01*
G01X7869700Y5575900D01*
X6385300D01*
X6329600Y5520200D01*
Y5510200D01*
X6330800Y5508800D01*
G02X6152500Y5434900I-76768J-66824D01*
G01X6152300Y5436800D01*
X6116800Y5472300D01*
G03X6099600Y5463000I-7211J-7220D01*
G02X6021000Y5541600I-99600J-21000D01*
G03X6030300Y5558800I2080J9989D01*
G01X6013200Y5575900D01*
X4830300D01*
X4774600Y5520200D01*
Y5457600D01*
X4774700Y5457200D01*
G02X4572500Y5434900I-100649J-15241D01*
G01X4572300Y5436800D01*
X4536800Y5472300D01*
G03X4519600Y5463000I-7211J-7220D01*
G37*
G36*
G01X5027600Y4701000D02*
G02X4949000Y4779600I-99600J-21000D01*
G03X4958300Y4796800I2080J9989D01*
G01X4941200Y4813900D01*
X3750800D01*
X3715000Y4778100D01*
G03Y4771000I3649J-3550D01*
G02X3543700Y4726600I-73007J-70978D01*
G01X3543900Y4727200D01*
Y4820800D01*
X3688200Y4965100D01*
X5003800D01*
X5118700Y4850200D01*
X5233600Y4965100D01*
X6583800D01*
X6707200Y4841700D01*
X6830700Y4965100D01*
X8440300D01*
X8584600Y4820800D01*
Y4739500D01*
G02X8431200Y4753100I-82579J-59511D01*
G03Y4760400I-3581J3650D01*
G01X8377700Y4813900D01*
X6893300D01*
X6837600Y4758200D01*
Y4748200D01*
X6838800Y4746800D01*
G02X6660500Y4672900I-76768J-66824D01*
G01X6660300Y4674800D01*
X6624800Y4710300D01*
G03X6607600Y4701000I-7211J-7220D01*
G02X6529000Y4779600I-99600J-21000D01*
G03X6538300Y4796800I2080J9989D01*
G01X6521200Y4813900D01*
X5296200D01*
X5257600Y4775300D01*
Y4748200D01*
X5258800Y4746800D01*
G02X5080500Y4672900I-76768J-66824D01*
G01X5080300Y4674800D01*
X5044800Y4710300D01*
G03X5027600Y4701000I-7211J-7220D01*
G37*
G54D21*
X3388000Y4700000D03*
X2880000Y5462000D03*
X3642000D03*
X4674000Y4680000D03*
X4928000Y5442000D03*
X5182000D03*
X6508000D03*
X6762000D03*
X7994000Y4680000D03*
X7740000Y5442000D03*
X8248000Y4680000D03*
X8502000Y5442000D03*
X8248000D03*
G54D19*
X1920000Y3144000D03*
X1300000Y3534000D03*
X2413000Y1651000D03*
Y2349500D03*
X4191000Y1651000D03*
Y2667000D03*
X4480000Y3120000D03*
Y4136000D03*
X6960000Y3104000D03*
X7500000Y3120000D03*
X8520000Y4120000D03*
G54D20*
X3365500Y2159000D03*
%LPD*%
G75*
G54D10*
X500000Y500000D03*
Y6500000D03*
X9500000Y500000D03*
Y6500000D03*
G54D11*
X645200Y1415000D03*
Y2431000D03*
Y1923000D03*
Y2939000D03*
Y4463000D03*
Y5479000D03*
Y4971000D03*
X1661200Y1415000D03*
X1153200D03*
X1661200Y2431000D03*
X1153200D03*
Y1923000D03*
Y2939000D03*
X1661200Y3955000D03*
X1153200D03*
X1661200Y3447000D03*
X1153200D03*
X1661200Y4463000D03*
X1153200D03*
X1661200Y5479000D03*
X1153200D03*
X1661200Y4971000D03*
X1153200D03*
X2169200Y1415000D03*
Y3955000D03*
Y3447000D03*
Y4463000D03*
Y4971000D03*
X3185200Y1415000D03*
X2677200D03*
X3185200Y2431000D03*
X2677200D03*
X3185200Y1923000D03*
X2677200Y2939000D03*
X3185200Y3955000D03*
Y3447000D03*
Y4463000D03*
X2677200D03*
Y5479000D03*
Y4971000D03*
X3693200Y1415000D03*
Y2939000D03*
X4709200Y1415000D03*
X4201200D03*
X4709200Y2431000D03*
Y1923000D03*
Y2939000D03*
X4201200Y3955000D03*
X4709200Y3447000D03*
X4201200D03*
Y4463000D03*
Y5479000D03*
X5217200Y1415000D03*
Y2431000D03*
Y1923000D03*
Y2939000D03*
Y3955000D03*
Y3447000D03*
Y4463000D03*
X6233200Y1415000D03*
X5725200D03*
X6233200Y2431000D03*
X5725200D03*
X6233200Y1923000D03*
X5725200D03*
X6233200Y2939000D03*
X5725200D03*
X6233200Y3955000D03*
X5725200D03*
X6233200Y3447000D03*
X5725200D03*
Y4463000D03*
Y5479000D03*
X6741200Y1415000D03*
Y2431000D03*
Y1923000D03*
Y3955000D03*
Y3447000D03*
Y4463000D03*
Y4971000D03*
X7757200Y1415000D03*
X7249200D03*
X7757200Y2431000D03*
X7249200D03*
X7757200Y1923000D03*
X7249200D03*
X7757200Y3955000D03*
Y3447000D03*
Y4463000D03*
X7249200D03*
Y5479000D03*
X8265200Y1415000D03*
Y2431000D03*
Y1923000D03*
Y2939000D03*
Y3447000D03*
X9281200Y1415000D03*
X8773200D03*
X9281200Y2431000D03*
X8773200D03*
X9281200Y1923000D03*
X8773200D03*
X9281200Y2939000D03*
X8773200D03*
X9281200Y3955000D03*
X8773200Y3447000D03*
X9281200Y4463000D03*
Y5479000D03*
X8773200D03*
X9281200Y4971000D03*
G54D12*
X500000Y3492000D03*
Y4000000D03*
Y3746000D03*
X1912000Y5140000D03*
X2166000Y5394000D03*
X2420000Y5140000D03*
X3388000Y4700000D03*
X3134000D03*
X3388000Y5462000D03*
X3134000D03*
X2880000D03*
X3642000Y4700000D03*
Y5462000D03*
X4928000Y4680000D03*
X4674000D03*
X4928000Y5442000D03*
X4674000D03*
X4420000D03*
X5182000Y4680000D03*
Y5442000D03*
X6508000Y4680000D03*
X6254000D03*
X6508000Y5442000D03*
X6254000D03*
X6000000D03*
X6762000Y4680000D03*
Y5442000D03*
X7994000Y4680000D03*
Y5442000D03*
X7740000D03*
X8502000Y4680000D03*
X8248000D03*
X8502000Y5442000D03*
X8248000D03*
X9500000Y3500000D03*
Y3754000D03*
G54D13*
X1587500Y1905000D03*
Y2159000D03*
X3365500Y1905000D03*
Y2159000D03*
G54D14*
X1587500Y2413000D03*
X3365500D03*
G54D15*
X1920000Y3144000D03*
X1300000Y3280000D03*
X1920000Y4160000D03*
X1300000Y3534000D03*
X2413000Y1905000D03*
Y1651000D03*
Y2603500D03*
Y2349500D03*
X2440000Y3160000D03*
Y4176000D03*
X3000000Y3144000D03*
Y4160000D03*
X4191000Y1651000D03*
Y1905000D03*
Y2667000D03*
Y2413000D03*
X4480000Y3120000D03*
Y4136000D03*
X5060000Y3854000D03*
Y3600000D03*
X5800000Y3120000D03*
X6420000Y3104000D03*
X5800000Y4136000D03*
X6420000Y4120000D03*
X6960000Y3104000D03*
Y4120000D03*
X8000000Y3124000D03*
X7500000Y3120000D03*
X8000000Y4140000D03*
X7500000Y4136000D03*
X8520000Y3104000D03*
Y4120000D03*
G54D16*
X2880000Y4700000D03*
X4420000Y4680000D03*
X6000000D03*
X7740000D03*
G54D17*
G01X1587500Y1905000D02*
X2413000D01*
G01X3365500D02*
X4191000D01*
G01X3134000Y5462000D02*
Y5613600D01*
X3171900Y5651500D01*
X4464500D01*
X4674000Y5442000D01*
G01X3642000Y4700000D02*
X3619500Y4722500D01*
Y4789500D01*
X3719500Y4889500D01*
X4972500D01*
X5182000Y4680000D01*
G01X4674000Y5442000D02*
X4699000Y5467000D01*
Y5551500D01*
X4799000Y5651500D01*
X6044500D01*
X6254000Y5442000D01*
G01X5182000Y4680000D02*
Y4806600D01*
X5264900Y4889500D01*
X6552500D01*
X6762000Y4680000D01*
G01X7994000Y5442000D02*
X8001000Y5449000D01*
Y5551500D01*
X7901000Y5651500D01*
X6354000D01*
X6254000Y5551500D01*
Y5442000D01*
G01X8502000Y4680000D02*
X8509000Y4687000D01*
Y4789500D01*
X8409000Y4889500D01*
X6862000D01*
X6762000Y4789500D01*
Y4680000D01*
G54D18*
G01X3365500Y2413000D02*
Y2794000D01*
X3302000Y2857500D01*
X1002500D01*
X952500Y2907500D01*
Y3936000D01*
X888500Y4000000D01*
X500000D01*
G01Y3746000D02*
X606900D01*
G01X500000D02*
Y3852900D01*
G01Y3639100D02*
Y3746000D01*
G01X1587500Y2413000D02*
X1713500D01*
G01X1461500D02*
X1587500D01*
G01D02*
Y2539000D01*
G01X2413000Y2603500D02*
X2145500D01*
X2095500Y2553500D01*
Y2222500D01*
X2032000Y2159000D01*
X1587500D01*
G01X1806700Y3144000D02*
X1920000D01*
G01X1300000Y3280000D02*
Y3021000D01*
X1350000Y2971000D01*
X2384000D01*
X2440000Y3027000D01*
Y3160000D01*
G01X1300000Y3534000D02*
X1413300D01*
G01X1186700D02*
X1300000D01*
G01D02*
Y3647300D01*
G01Y3420700D02*
Y3534000D01*
G01X2413000Y1651000D02*
X2526300D01*
G01X2299700D02*
X2413000D01*
G01D02*
Y1764300D01*
G01Y1537700D02*
Y1651000D01*
G01Y2349500D02*
X2526300D01*
G01X2299700D02*
X2413000D01*
G01D02*
Y2462800D01*
G01Y2236200D02*
Y2349500D01*
G01X1920000Y3144000D02*
X2033300D01*
G01X1920000D02*
Y3257300D01*
G01Y5001500D02*
Y4160000D01*
G01X3134000Y4700000D02*
X3111500Y4722500D01*
Y4839500D01*
X3061500Y4889500D01*
X2032000D01*
X1920000Y5001500D01*
G01X2440000Y4176000D02*
X2851000D01*
X2867000Y4160000D01*
X3000000D01*
G01X1920000Y5001500D02*
X1912000Y5009500D01*
Y5140000D01*
G01X3388000Y5462000D02*
Y5190100D01*
X3337900Y5140000D01*
X2420000D01*
G01D02*
X2216000D01*
X2166000Y5190000D01*
Y5394000D01*
G01X3365500Y2159000D02*
X3491500D01*
G01X3239500D02*
X3365500D01*
G01Y2413000D02*
X4191000D01*
G01X5060000Y3600000D02*
X3860000D01*
X3810000Y3550000D01*
Y3194000D01*
X3760000Y3144000D01*
X3000000D01*
G01X4077700Y1651000D02*
X4191000D01*
G01X4077700Y2667000D02*
X4191000D01*
G01Y1651000D02*
X4304300D01*
G01X4191000D02*
Y1764300D01*
G01Y1537700D02*
Y1651000D01*
G01Y2553700D02*
Y2667000D01*
G01D02*
X4304300D01*
G01X4191000D02*
Y2780300D01*
G01X4480000Y3120000D02*
X4593300D01*
G01X4366700D02*
X4480000D01*
G01D02*
Y3233300D01*
G01Y3006700D02*
Y3120000D01*
G01X5800000D02*
X5143500D01*
X5060000Y3203500D01*
Y3600000D01*
G01X5800000Y4136000D02*
X5667000D01*
X5658500Y4127500D01*
X5447500D01*
X5397500Y4077500D01*
Y3937000D01*
X5314500Y3854000D01*
X5060000D01*
G01X8000000Y3124000D02*
X8001000Y3123000D01*
Y2971000D01*
X7951000Y2921000D01*
X6470000D01*
X6420000Y2971000D01*
Y3104000D01*
G01X5800000Y4136000D02*
X6271000D01*
X6287000Y4120000D01*
X6420000D01*
G01X6960000D02*
Y4340800D01*
X6922200Y4378600D01*
X6289400D01*
X6254000Y4414000D01*
Y4680000D01*
G01X6960000Y3104000D02*
X7073300D01*
G01X6846700D02*
X6960000D01*
G01D02*
Y3217300D01*
G01X7500000Y4136000D02*
X7863000D01*
X7867000Y4140000D01*
X8000000D01*
G01X7887100Y4680000D02*
X7994000D01*
G01X8000000Y3124000D02*
X8367000D01*
X8387000Y3104000D01*
X8520000D01*
G01X7994000Y4680000D02*
X8100900D01*
G01X7994000D02*
Y4786900D01*
G01Y4573100D02*
Y4680000D01*
G01X9393100Y3754000D02*
X9500000D01*
G01D02*
Y3860900D01*
G01Y3647100D02*
Y3754000D01*
M02*
